# Blender v2.78 (sub 0) OBJ File: 'e1m1-test.blend'
# www.blender.org
mtllib armband.mtl
o armband_Plane.001
v -80.013145 -149.871613 23.361111
v -73.861855 -122.921082 23.361111
v -86.164436 -122.921082 23.361111
v -93.834953 -132.539597 23.361111
v -91.097351 -144.533707 23.361111
v 116.914574 -39.400684 -53.159058
v 116.914574 -51.591843 -68.446388
v 116.914574 -35.049656 -34.096062
v 124.585083 -132.539597 -34.096058
v 116.914574 -122.921082 -34.096058
v 124.585083 -25.431128 -34.096062
v 121.847466 -144.533707 -34.096058
v 121.847488 -13.437004 -34.096062
v 110.763283 -8.099119 -34.096062
v 110.763275 -123.182190 78.782219
v 110.763275 -149.871613 -34.096058
v 110.763275 -63.211723 92.470062
v 110.763283 -15.119094 54.117466
v 116.914574 -106.378799 57.711456
v 110.763283 -34.788544 78.782173
v 121.847466 -144.533707 23.361111
v 116.914574 -39.400608 42.424091
v 124.585083 -127.236046 46.597443
v 116.914574 -118.570045 42.424126
v 116.914574 -122.921082 23.361111
v 124.585083 -132.539597 23.361111
v 124.585083 -30.734676 46.597412
v 121.847488 -138.042358 51.801495
v 124.585083 -45.594860 65.231491
v 121.847488 -119.854065 74.608902
v 124.585083 -67.068398 75.572639
v 121.847488 -64.399452 87.266022
v 121.847488 -38.116585 74.608864
v 121.847488 -19.928358 51.801445
v 121.847488 -93.571274 87.266022
v 110.763275 -94.759064 92.470062
v 124.585083 -112.375854 65.231529
v 124.585083 -90.902336 75.572624
v 121.847488 -13.437004 23.361105
v 110.763283 -8.099119 23.361105
v 110.763275 -142.851624 54.117508
v 110.763275 -149.871613 23.361111
v 116.914574 -35.049656 23.361105
v 124.585083 -25.431128 23.361105
v 116.914574 -51.591843 57.711433
v 116.914574 -88.762009 66.195267
v 116.914574 -69.208717 66.195267
v -80.013145 -8.099119 23.361105
v -73.861847 -35.049656 23.361105
v -86.164436 -35.049656 23.361105
v -93.834938 -25.431128 23.361105
v -91.097343 -13.437004 23.361105
v -80.013145 -15.119094 54.117466
v -73.861847 -39.400608 42.424091
v -86.164436 -39.400608 42.424091
v -93.834938 -30.734676 46.597412
v -91.097343 -19.928358 51.801445
v -80.013145 -34.788544 78.782173
v -73.861847 -51.591843 57.711433
v -86.164436 -51.591843 57.711433
v -93.834938 -45.594860 65.231491
v -91.097343 -38.116585 74.608864
v -80.013145 -63.211723 92.470062
v -73.861847 -69.208717 66.195267
v -86.164436 -69.208717 66.195267
v -93.834938 -67.068398 75.572639
v -91.097343 -64.399452 87.266022
v -80.013145 -94.759064 92.470062
v -73.861847 -88.762009 66.195267
v -86.164436 -88.762009 66.195267
v -93.834938 -90.902336 75.572624
v -91.097351 -93.571274 87.266022
v -80.013145 -123.182190 78.782219
v -73.861847 -106.378799 57.711456
v -86.164436 -106.378799 57.711456
v -93.834938 -112.375854 65.231529
v -91.097351 -119.854065 74.608902
v -80.013145 -142.851624 54.117508
v -73.861847 -118.570045 42.424126
v -86.164436 -118.570045 42.424126
v -93.834953 -127.236046 46.597443
v -91.097351 -138.042358 51.801495
v -62.609997 -5.000000 43.062115
v 93.130013 -5.000000 43.062115
v -62.609997 -5.000000 -54.515259
v 93.130013 -5.000000 -54.515259
v -68.048897 1.061260 47.573776
v 98.568924 1.061260 47.573776
v -68.048897 1.061260 -59.026924
v 98.568924 1.061260 -59.026924
v -72.717712 1.061260 52.520351
v 103.237717 1.061260 52.520351
v -72.717712 1.061260 -63.973503
v 103.237717 1.061260 -63.973503
v -79.654648 -4.786049 55.811497
v 110.174660 -4.786049 55.811497
v -79.654648 -4.786049 -67.264648
v 110.174660 -4.786049 -67.264648
v -86.164436 -88.762009 -76.930222
v -93.834938 -90.902336 -86.307579
v -93.834953 -127.236046 -57.332367
v -91.097351 -138.042358 -62.536419
v -73.861847 -51.591843 -68.446388
v -73.861847 -39.400684 -53.159058
v -73.861847 -35.049656 -34.096062
v -80.013145 -123.182190 -89.517143
v -91.097343 -38.116585 -85.343803
v -91.097343 -19.928358 -62.536430
v -80.013145 -8.099119 -34.096062
v -91.097343 -64.399452 -98.000969
v -80.013145 -15.119094 -64.852440
v -86.164436 -69.208717 -76.930222
v -86.164436 -51.591843 -68.446388
v -91.097351 -119.854065 -85.343811
v -91.097351 -93.571274 -98.000969
v -80.013145 -34.788544 -89.517120
v -80.013145 -94.759064 -103.204994
v 110.174660 -20.191685 -67.264648
v -79.654648 -20.191685 -67.264648
v -93.834938 -30.734676 -57.332378
v -93.834938 -25.431128 -34.096062
v -86.164436 -122.921082 -34.096058
v -93.834953 -132.539597 -34.096058
v -86.164436 -118.570107 -53.159054
v -73.861847 -69.208717 -76.930222
v -80.013145 -149.871613 -34.096058
v -80.013145 -142.851624 -64.852432
v -86.164436 -106.378868 -68.446388
v -93.834953 -112.375854 -75.966446
v -86.164436 -39.400684 -53.159058
v -91.097351 -144.533707 -34.096058
v -73.861855 -122.921082 -34.096058
v -73.861847 -88.762009 -76.930222
v -93.834938 -67.068398 -86.307587
v -73.861847 -118.570107 -53.159054
v -73.861847 -106.378868 -68.446388
v -91.097343 -13.437004 -34.096062
v -86.164436 -35.049656 -34.096062
v 110.174660 -20.191685 55.811497
v -80.013145 -63.211723 -103.204994
v -93.834938 -45.594860 -75.966446
v -79.654648 -20.191685 55.811497
v 124.585083 -127.236046 -57.332367
v 110.763275 -123.182190 -89.517143
v 121.847488 -119.854065 -85.343811
v 121.847488 -38.116585 -85.343803
v 124.585083 -45.594860 -75.966446
v 121.847488 -64.399452 -98.000969
v 124.585083 -67.068398 -86.307587
v 121.847488 -19.928358 -62.536430
v 124.585083 -30.734676 -57.332378
v 124.585083 -112.375854 -75.966446
v 124.585083 -90.902336 -86.307579
v 121.847488 -93.571274 -98.000969
v 110.763275 -142.851624 -64.852432
v 110.763283 -34.788544 -89.517120
v 110.763283 -15.119094 -64.852440
v 116.914574 -88.762009 -76.930222
v 116.914574 -69.208717 -76.930222
v 116.914574 -118.570107 -53.159054
v 116.914574 -106.378868 -68.446388
v 110.763275 -94.759064 -103.204994
v 110.763275 -63.211723 -103.204994
v 121.847466 -138.042358 -62.536419
vt 0.0941 0.9537
vt 0.0139 0.9889
vt 0.9842 0.9889
vt 0.8955 0.9567
vt 0.9076 0.7074
vt 0.9878 0.6721
vt 0.0174 0.6721
vt 0.1061 0.7044
vt 0.2234 0.9015
vt 0.7624 0.9062
vt 0.7783 0.7595
vt 0.2393 0.7548
vt 0.1765 0.9218
vt 0.1562 0.9296
vt 0.8326 0.9330
vt 0.8149 0.9242
vt 0.8251 0.7393
vt 0.1867 0.7369
vt 0.8454 0.7314
vt 0.1690 0.7281
vt 0.5125 0.6242
vt 0.5125 0.6588
vt 0.4870 0.6588
vt 0.4870 0.6242
vt 0.5380 0.6242
vt 0.5380 0.6588
vt 0.4870 0.5896
vt 0.4616 0.6242
vt 0.4616 0.5896
vt 0.5125 0.5896
vt 0.5380 0.5896
vt 0.4870 0.5549
vt 0.4616 0.5549
vt 0.5125 0.5549
vt 0.5380 0.5549
vt 0.4870 0.4417
vt 0.4870 0.4763
vt 0.4616 0.4763
vt 0.4616 0.4417
vt 0.5125 0.4417
vt 0.5125 0.4763
vt 0.5380 0.4417
vt 0.5380 0.4763
vt 0.4870 0.4070
vt 0.4616 0.4070
vt 0.5125 0.4070
vt 0.5380 0.4070
vt 0.4870 0.3724
vt 0.4616 0.3724
vt 0.5125 0.3724
vt 0.5380 0.3724
vt 0.4870 0.3378
vt 0.4616 0.3378
vt 0.5125 0.3378
vt 0.5380 0.3378
vt 0.4870 0.3031
vt 0.4616 0.3031
vt 0.5125 0.3031
vt 0.5380 0.3031
vt 0.4870 0.2685
vt 0.4616 0.2685
vt 0.5125 0.2685
vt 0.5380 0.2685
vt 0.4870 0.2339
vt 0.4616 0.2339
vt 0.5125 0.2339
vt 0.5380 0.2339
vt 0.4616 0.1552
vt 0.4870 0.1552
vt 0.5125 0.1552
vt 0.5380 0.1552
vt 0.0410 0.4763
vt 0.0665 0.4763
vt 0.0665 0.5549
vt 0.0410 0.5549
vt 0.9840 0.2339
vt 0.9586 0.2339
vt 0.9586 0.1552
vt 0.9840 0.1552
vt 0.0410 0.2339
vt 0.0155 0.2339
vt 0.0155 0.1552
vt 0.0410 0.1552
vt 0.9586 0.4763
vt 0.9840 0.4763
vt 0.9840 0.5549
vt 0.9586 0.5549
vt 0.9331 0.4763
vt 0.9331 0.5549
vt 0.0155 0.4763
vt 0.0155 0.5549
vt 0.9331 0.2339
vt 0.9331 0.1552
vt 0.0665 0.2339
vt 0.0665 0.1552
vt 0.0665 0.2685
vt 0.0410 0.2685
vt 0.0155 0.2685
vt 0.9840 0.2685
vt 0.9586 0.2685
vt 0.9331 0.2685
vt 0.0665 0.3031
vt 0.0410 0.3031
vt 0.0155 0.3031
vt 0.9840 0.3031
vt 0.9586 0.3031
vt 0.9331 0.3031
vt 0.0665 0.3378
vt 0.0410 0.3378
vt 0.0155 0.3378
vt 0.9840 0.3378
vt 0.9586 0.3378
vt 0.9331 0.3378
vt 0.9331 0.3724
vt 0.0665 0.3724
vt 0.0410 0.3724
vt 0.0155 0.3724
vt 0.9840 0.3724
vt 0.9586 0.3724
vt 0.9331 0.0167
vt 0.9331 0.0513
vt 0.5380 0.0513
vt 0.5380 0.0167
vt 0.9331 0.4070
vt 0.0665 0.4070
vt 0.0410 0.4070
vt 0.0155 0.4070
vt 0.9840 0.4070
vt 0.9586 0.4070
vt 0.0665 0.1206
vt 0.4616 0.1206
vt 0.9331 0.5896
vt 0.9331 0.6242
vt 0.0665 0.0860
vt 0.0665 0.0513
vt 0.4616 0.0513
vt 0.4616 0.0860
vt 0.0665 0.4417
vt 0.0410 0.4417
vt 0.0155 0.4417
vt 0.9840 0.4417
vt 0.9586 0.4417
vt 0.9331 0.4417
vt 0.9331 0.6588
vt 0.0665 0.5896
vt 0.0410 0.5896
vt 0.0155 0.5896
vt 0.9840 0.5896
vt 0.9586 0.5896
vt 0.0665 0.6242
vt 0.0410 0.6242
vt 0.0155 0.6242
vt 0.9840 0.6242
vt 0.9586 0.6242
vt 0.0665 0.0167
vt 0.4616 0.0167
vt 0.0665 0.6588
vt 0.0410 0.6588
vt 0.0155 0.6588
vt 0.9840 0.6588
vt 0.9586 0.6588
vt 0.9331 0.1206
vt 0.5380 0.1206
vt 0.0410 0.0513
vt 0.0410 0.0167
vt 0.0155 0.0513
vt 0.0155 0.0167
vt 0.9840 0.0167
vt 0.9840 0.0513
vt 0.9586 0.0513
vt 0.9586 0.0167
vt 0.9331 0.0860
vt 0.5380 0.0860
vt 0.0410 0.0860
vt 0.0155 0.0860
vt 0.9840 0.0860
vt 0.9586 0.0860
vt 0.4616 0.6588
vt 0.0410 0.1206
vt 0.0155 0.1206
vt 0.9840 0.1206
vt 0.9586 0.1206
vt 0.5125 0.0513
vt 0.5125 0.0167
vt 0.4870 0.0513
vt 0.4870 0.0167
vt 0.5125 0.0860
vt 0.4870 0.0860
vt 0.5125 0.1206
vt 0.4870 0.1206
vn 0.0000 0.0000 1.0000
vn 0.0000 0.0000 -1.0000
vn -1.0000 0.0000 0.0000
vn 1.0000 0.0000 0.0000
vn 0.0000 1.0000 0.0000
vn 0.0000 0.5971 0.8022
vn 0.0000 0.5971 -0.8022
vn -0.7443 0.6679 0.0000
vn 0.7443 0.6679 0.0000
vn 0.6445 0.7646 0.0000
vn -0.6445 0.7646 0.0000
vn 0.0000 0.4905 -0.8714
vn 0.0000 0.4905 0.8714
vn 0.7526 -0.4106 -0.5148
vn 0.7526 -0.1465 -0.6420
vn 0.9868 0.0361 0.1581
vn 0.9868 0.1011 0.1268
vn 0.2159 -0.6088 -0.7634
vn 0.2159 -0.2173 -0.9519
vn 0.9868 0.1461 0.0703
vn 0.4599 0.5536 0.6942
vn 0.4599 0.8000 0.3853
vn 0.7526 -0.5933 -0.2857
vn 0.2159 -0.8797 -0.4236
vn 0.9811 0.1922 0.0186
vn 0.4448 0.8897 0.1027
vn 0.7657 -0.6390 -0.0731
vn 0.2181 -0.9699 -0.1078
vn 0.9868 0.1461 -0.0703
vn 0.9811 0.1922 -0.0186
vn 0.4448 0.8897 -0.1027
vn 0.4599 0.8000 -0.3853
vn 0.7526 -0.5933 0.2857
vn 0.7657 -0.6390 0.0731
vn 0.2159 -0.8797 0.4236
vn 0.2181 -0.9699 0.1078
vn 0.9868 0.1011 -0.1268
vn 0.4599 0.5536 -0.6942
vn 0.7526 -0.4106 0.5148
vn 0.2159 -0.6088 0.7634
vn 0.9868 0.0361 -0.1581
vn 0.4599 0.1976 -0.8657
vn 0.7526 -0.1465 0.6420
vn 0.2159 -0.2173 0.9519
vn 0.9868 -0.0361 -0.1581
vn 0.4599 -0.1976 -0.8657
vn 0.7526 0.1465 0.6420
vn 0.2159 0.2173 0.9519
vn 0.9868 -0.1011 -0.1268
vn 0.4599 -0.5536 -0.6942
vn 0.7526 0.4106 0.5148
vn 0.2159 0.6088 0.7634
vn 0.9868 -0.1461 -0.0703
vn 0.4599 -0.8000 -0.3853
vn 0.7526 0.5933 0.2857
vn 0.2159 0.8797 0.4236
vn 0.9811 -0.1922 -0.0186
vn 0.4448 -0.8897 -0.1027
vn 0.7657 0.6390 0.0731
vn 0.2181 0.9699 0.1078
vn 0.4448 -0.8897 0.1027
vn 0.9811 -0.1922 0.0186
vn 0.7657 0.6390 -0.0731
vn 0.2181 0.9699 -0.1078
vn -0.4448 0.8897 -0.1027
vn 0.0000 0.9937 -0.1119
vn 0.0000 0.9937 0.1119
vn -0.4448 0.8897 0.1027
vn -0.9811 -0.1922 -0.0186
vn -0.7657 0.6390 0.0731
vn -0.7657 0.6390 -0.0731
vn -0.9811 -0.1922 0.0186
vn -0.4448 -0.8897 -0.1027
vn -0.4448 -0.8897 0.1027
vn -0.7657 -0.6390 0.0731
vn -0.9811 0.1922 -0.0186
vn -0.9811 0.1922 0.0186
vn -0.7657 -0.6390 -0.0731
vn -0.2181 -0.9699 0.1078
vn -0.2181 -0.9699 -0.1078
vn -0.2181 0.9699 0.1078
vn -0.2181 0.9699 -0.1078
vn 0.0000 -0.9937 -0.1119
vn 0.0000 -0.9937 0.1119
vn 0.0000 -0.9010 -0.4339
vn -0.4599 -0.8000 -0.3853
vn -0.9868 -0.1461 -0.0703
vn -0.7526 0.5933 0.2857
vn -0.2159 0.8797 0.4236
vn 0.0000 -0.6235 -0.7818
vn -0.4599 -0.5536 -0.6942
vn -0.9868 -0.1011 -0.1268
vn -0.7526 0.4106 0.5148
vn -0.2159 0.6088 0.7634
vn 0.0000 -0.2225 -0.9749
vn -0.4599 -0.1976 -0.8657
vn -0.9868 -0.0361 -0.1581
vn -0.7526 0.1465 0.6420
vn -0.2159 0.2173 0.9519
vn -0.2159 -0.2173 0.9519
vn 0.0000 0.2225 -0.9749
vn -0.4599 0.1976 -0.8657
vn -0.9868 0.0361 -0.1581
vn -0.7526 -0.1465 0.6420
vn -0.2159 -0.2173 -0.9519
vn -0.2159 0.2173 -0.9519
vn 0.2159 0.2173 -0.9519
vn -0.2159 -0.6088 0.7634
vn 0.0000 0.6235 -0.7818
vn -0.4599 0.5536 -0.6942
vn -0.9868 0.1011 -0.1268
vn -0.7526 -0.4106 0.5148
vn 0.0000 -0.9010 0.4339
vn 0.4599 -0.8000 0.3853
vn -0.2159 -0.8797 -0.4236
vn -0.2159 -0.6088 -0.7634
vn 0.0000 -0.6235 0.7818
vn 0.0000 -0.2225 0.9749
vn 0.4599 -0.1976 0.8657
vn 0.4599 -0.5536 0.6942
vn 0.0000 0.9010 -0.4339
vn -0.4599 0.8000 -0.3853
vn -0.9868 0.1461 -0.0703
vn -0.7526 -0.5933 0.2857
vn -0.2159 -0.8797 0.4236
vn 0.0000 0.9010 0.4339
vn -0.4599 0.8000 0.3853
vn -0.9868 0.1461 0.0703
vn -0.7526 -0.5933 -0.2857
vn 0.0000 0.6235 0.7818
vn -0.4599 0.5536 0.6942
vn -0.9868 0.1011 0.1268
vn -0.7526 -0.4106 -0.5148
vn 0.0000 0.2225 0.9749
vn 0.4599 0.1976 0.8657
vn -0.4599 0.1976 0.8657
vn -0.9868 0.0361 0.1581
vn -0.7526 -0.1465 -0.6420
vn -0.2159 0.8797 -0.4236
vn 0.2159 0.8797 -0.4236
vn -0.4599 -0.1976 0.8657
vn -0.9868 -0.0361 0.1581
vn -0.7526 0.1465 -0.6420
vn -0.2159 0.6088 -0.7634
vn 0.2159 0.6088 -0.7634
vn -0.4599 -0.5536 0.6942
vn -0.9868 -0.1011 0.1268
vn -0.7526 0.4106 -0.5148
vn -0.4599 -0.8000 0.3853
vn -0.9868 -0.1461 0.0703
vn -0.7526 0.5933 -0.2857
vn 0.7526 0.1465 -0.6420
vn 0.9868 -0.0361 0.1581
vn 0.7526 0.4106 -0.5148
vn 0.9868 -0.1011 0.1268
vn 0.7526 0.5933 -0.2857
vn 0.9868 -0.1461 0.0703
usemtl Material
s off
f 95/1/1 142/2/1 139/3/1 96/4/1
f 98/5/2 118/6/2 119/7/2 97/8/2
f 97/8/3 119/7/3 142/2/3 95/1/3
f 96/4/4 139/3/4 118/6/4 98/5/4
f 83/9/5 84/10/5 86/11/5 85/12/5
f 87/13/5 91/14/5 92/15/5 88/16/5
f 86/11/6 90/17/6 89/18/6 85/12/6
f 83/9/7 87/13/7 88/16/7 84/10/7
f 84/10/8 88/16/8 90/17/8 86/11/8
f 85/12/9 89/18/9 87/13/9 83/9/9
f 88/16/5 92/15/5 94/19/5 90/17/5
f 89/18/5 93/20/5 91/14/5 87/13/5
f 90/17/5 94/19/5 93/20/5 89/18/5
f 92/15/10 96/4/10 98/5/10 94/19/10
f 93/20/11 97/8/11 95/1/11 91/14/11
f 94/19/12 98/5/12 97/8/12 93/20/12
f 91/14/13 95/1/13 96/4/13 92/15/13
s 1
f 145/21/14 154/22/15 153/23/16 152/24/17
f 144/25/18 162/26/19 154/22/15 145/21/14
f 143/27/20 152/24/17 161/28/21 160/29/22
f 164/30/23 145/21/14 152/24/17 143/27/20
f 155/31/24 144/25/18 145/21/14 164/30/23
f 9/32/25 143/27/20 160/29/22 10/33/26
f 12/34/27 164/30/23 143/27/20 9/32/25
f 16/35/28 155/31/24 164/30/23 12/34/27
f 23/36/29 26/37/30 25/38/31 24/39/32
f 28/40/33 21/41/34 26/37/30 23/36/29
f 41/42/35 42/43/36 21/41/34 28/40/33
f 37/44/37 23/36/29 24/39/32 19/45/38
f 30/46/39 28/40/33 23/36/29 37/44/37
f 15/47/40 41/42/35 28/40/33 30/46/39
f 38/48/41 37/44/37 19/45/38 46/49/42
f 35/50/43 30/46/39 37/44/37 38/48/41
f 36/51/44 15/47/40 30/46/39 35/50/43
f 31/52/45 38/48/41 46/49/42 47/53/46
f 32/54/47 35/50/43 38/48/41 31/52/45
f 17/55/48 36/51/44 35/50/43 32/54/47
f 29/56/49 31/52/45 47/53/46 45/57/50
f 33/58/51 32/54/47 31/52/45 29/56/49
f 20/59/52 17/55/48 32/54/47 33/58/51
f 27/60/53 29/56/49 45/57/50 22/61/54
f 34/62/55 33/58/51 29/56/49 27/60/53
f 18/63/56 20/59/52 33/58/51 34/62/55
f 44/64/57 27/60/53 22/61/54 43/65/58
f 39/66/59 34/62/55 27/60/53 44/64/57
f 40/67/60 18/63/56 34/62/55 39/66/59
f 25/38/31 26/37/30 9/32/25 10/33/26
f 44/64/57 43/65/58 8/68/61 11/69/62
f 26/37/30 21/41/34 12/34/27 9/32/25
f 39/66/59 44/64/57 11/69/62 13/70/63
f 40/67/60 39/66/59 13/70/63 14/71/64
f 21/41/34 42/43/36 16/35/28 12/34/27
f 3/72/65 2/73/66 132/74/67 122/75/68
f 51/76/69 52/77/70 137/78/71 121/79/72
f 50/80/73 51/81/69 121/82/72 138/83/74
f 5/84/75 4/85/76 123/86/77 131/87/78
f 1/88/79 5/84/75 131/87/78 126/89/80
f 4/90/76 3/72/65 122/75/68 123/91/77
f 52/77/70 48/92/81 109/93/82 137/78/71
f 49/94/83 50/80/73 138/83/74 105/95/84
f 49/94/83 54/96/85 55/97/86 50/80/73
f 50/80/73 55/97/86 56/98/87 51/81/69
f 51/76/69 56/99/87 57/100/88 52/77/70
f 52/77/70 57/100/88 53/101/89 48/92/81
f 54/96/85 59/102/90 60/103/91 55/97/86
f 55/97/86 60/103/91 61/104/92 56/98/87
f 56/99/87 61/105/92 62/106/93 57/100/88
f 57/100/88 62/106/93 58/107/94 53/101/89
f 59/102/90 64/108/95 65/109/96 60/103/91
f 60/103/91 65/109/96 66/110/97 61/104/92
f 61/105/92 66/111/97 67/112/98 62/106/93
f 62/106/93 67/112/98 63/113/99 58/107/94
f 109/93/82 48/92/81 40/67/60 14/71/64
f 63/113/99 68/114/100 36/51/44 17/55/48
f 64/108/95 69/115/101 70/116/102 65/109/96
f 65/109/96 70/116/102 71/117/103 66/110/97
f 66/111/97 71/118/103 72/119/104 67/112/98
f 67/112/98 72/119/104 68/114/100 63/113/99
f 117/120/105 140/121/106 163/122/107 162/123/19
f 68/114/100 73/124/108 15/47/40 36/51/44
f 49/94/83 105/95/84 8/68/61 43/65/58
f 69/115/101 74/125/109 75/126/110 70/116/102
f 70/116/102 75/126/110 76/127/111 71/117/103
f 71/118/103 76/128/111 77/129/112 72/119/104
f 72/119/104 77/129/112 73/124/108 68/114/100
f 105/95/84 104/130/113 6/131/114 8/68/61
f 127/132/115 106/133/116 144/25/18 155/31/24
f 103/134/117 125/135/118 159/136/119 7/137/120
f 74/125/109 79/138/121 80/139/122 75/126/110
f 75/126/110 80/139/122 81/140/123 76/127/111
f 76/128/111 81/141/123 82/142/124 77/129/112
f 77/129/112 82/142/124 78/143/125 73/124/108
f 48/92/81 53/101/89 18/63/56 40/67/60
f 106/133/116 117/144/105 162/26/19 144/25/18
f 74/125/109 69/115/101 46/49/42 19/45/38
f 79/138/121 2/73/66 3/72/65 80/139/122
f 80/139/122 3/72/65 4/90/76 81/140/123
f 81/141/123 4/85/76 5/84/75 82/142/124
f 82/142/124 5/84/75 1/88/79 78/143/125
f 126/89/80 127/132/115 155/31/24 16/35/28
f 104/130/113 103/134/117 7/137/120 6/131/114
f 64/108/95 59/102/90 45/57/50 47/53/46
f 132/74/67 135/145/126 124/146/127 122/75/68
f 122/75/68 124/146/127 101/147/128 123/91/77
f 123/86/77 101/148/128 102/149/129 131/87/78
f 126/89/80 131/87/78 102/149/129 127/132/115
f 79/138/121 74/125/109 19/45/38 24/39/32
f 2/73/66 79/138/121 24/39/32 25/38/31
f 132/74/67 2/73/66 25/38/31 10/33/26
f 135/145/126 136/150/130 128/151/131 124/146/127
f 124/146/127 128/151/131 129/152/132 101/147/128
f 101/148/128 129/153/132 114/154/133 102/149/129
f 102/149/129 114/154/133 106/133/116 127/132/115
f 125/135/118 133/155/134 158/156/135 159/136/119
f 69/115/101 64/108/95 47/53/46 46/49/42
f 78/143/125 1/88/79 42/43/36 41/42/35
f 136/150/130 133/157/134 99/158/136 128/151/131
f 128/151/131 99/158/136 100/159/137 129/152/132
f 129/153/132 100/160/137 115/161/138 114/154/133
f 114/154/133 115/161/138 117/144/105 106/133/116
f 135/145/126 132/74/67 10/33/26 160/29/22
f 111/162/139 109/93/82 14/71/64 157/163/140
f 54/96/85 49/94/83 43/65/58 22/61/54
f 133/155/134 125/135/118 112/164/141 99/165/136
f 99/165/136 112/164/141 134/166/142 100/167/137
f 100/168/137 134/169/142 110/170/143 115/171/138
f 115/171/138 110/170/143 140/121/106 117/120/105
f 59/102/90 54/96/85 22/61/54 45/57/50
f 73/124/108 78/143/125 41/42/35 15/47/40
f 116/172/144 111/162/139 157/163/140 156/173/145
f 125/135/118 103/134/117 113/174/146 112/164/141
f 112/164/141 113/174/146 141/175/147 134/166/142
f 134/169/142 141/176/147 107/177/148 110/170/143
f 110/170/143 107/177/148 116/172/144 140/121/106
f 136/150/130 135/145/126 160/29/22 161/28/21
f 133/157/134 136/150/130 161/28/21 158/178/135
f 53/101/89 58/107/94 20/59/52 18/63/56
f 103/134/117 104/130/113 130/179/149 113/174/146
f 113/174/146 130/179/149 120/180/150 141/175/147
f 141/176/147 120/181/150 108/182/151 107/177/148
f 107/177/148 108/182/151 111/162/139 116/172/144
f 140/121/106 116/172/144 156/173/145 163/122/107
f 58/107/94 63/113/99 17/55/48 20/59/52
f 1/88/79 126/89/80 16/35/28 42/43/36
f 104/130/113 105/95/84 138/83/74 130/179/149
f 130/179/149 138/83/74 121/82/72 120/180/150
f 120/181/150 121/79/72 137/78/71 108/182/151
f 108/182/151 137/78/71 109/93/82 111/162/139
f 152/24/17 153/23/16 158/178/135 161/28/21
f 162/123/19 163/122/107 148/183/152 154/184/15
f 154/184/15 148/183/152 149/185/153 153/186/16
f 153/186/16 149/185/153 159/136/119 158/156/135
f 163/122/107 156/173/145 146/187/154 148/183/152
f 148/183/152 146/187/154 147/188/155 149/185/153
f 149/185/153 147/188/155 7/137/120 159/136/119
f 156/173/145 157/163/140 150/189/156 146/187/154
f 146/187/154 150/189/156 151/190/157 147/188/155
f 147/188/155 151/190/157 6/131/114 7/137/120
f 157/163/140 14/71/64 13/70/63 150/189/156
f 150/189/156 13/70/63 11/69/62 151/190/157
f 151/190/157 11/69/62 8/68/61 6/131/114
