# Blender v2.78 (sub 4) OBJ File: 'e1m1.blend'
# www.blender.org
mtllib door1.mtl
o Door_1_bottom_Object__301.001
v 16.386276 5.028579 -35.324684
v 15.858276 5.028579 -35.324684
v 15.858278 5.028577 -39.552681
v 16.386278 5.028577 -39.552681
vt -24.250000 -39.000000
vt -24.000000 -39.000000
vt -24.000000 -37.000000
vt -24.250000 -37.000000
vn 0.0000 -1.0000 0.0000
usemtl Material__10
s 1
f 1/1/1 2/2/1 3/3/1 4/4/1
o Door_1_sides_Object__301
v 15.858276 5.028579 -35.324684
v 15.858276 7.935579 -35.324684
v 15.858278 7.935578 -39.552681
v 15.858278 5.028577 -39.552681
v 16.386278 5.028577 -39.552681
v 16.386278 7.407577 -39.552681
v 16.386276 7.407579 -35.324684
v 16.386276 5.028579 -35.324684
vt 1.000000 1.000000
vt 1.000000 1.687500
vt 0.000000 1.687500
vt 0.000000 1.000000
vt 1.000000 1.000000
vt 1.000000 1.562500
vt 0.000000 1.562500
vt 0.000000 1.000000
vn -1.0000 0.0000 -0.0000
vn 1.0000 0.0000 0.0000
usemtl Material__53
s 1
f 5/5/2 6/6/2 7/7/2 8/8/2
f 9/9/3 10/10/3 11/11/3 12/12/3
