# Blender v2.77 (sub 0) OBJ File: 'ParlorMeasurement.blend'
# www.blender.org
mtllib backing.mtl
o backing_Combined_Mesh_(root:_scene).002
v 15.895439 -1.536261 1.559003
v 15.877388 -1.536020 0.032143
v 15.895439 -1.525386 0.021062
v 15.895439 -1.536261 0.031937
v 15.877388 -0.620629 1.558797
v 15.895439 -0.631264 1.569879
v 15.877388 -0.631469 1.569638
v 15.866547 -0.631469 1.558797
v 15.877388 -0.631469 0.021304
v 15.877388 -1.536020 1.558797
v 15.877388 -0.620629 0.032143
v 15.895439 -0.620388 1.559003
v 15.895439 -0.620387 0.031937
v 15.866549 -0.631469 0.032143
v 15.866549 -1.525181 0.032143
v 15.895439 -0.631263 0.021062
v 15.877388 -1.525181 1.569637
v 15.895439 -1.525387 1.569879
v 15.866549 -1.525181 1.558797
v 15.877388 -1.525181 0.021304
vt 0.9893 0.0297
vt 0.9826 0.0173
vt 0.9826 0.0005
vt 1.0000 0.0286
vt 0.0196 0.0173
vt 0.0125 0.0297
vt 0.0025 0.0286
vt 0.0193 0.0005
vt 0.9826 0.9843
vt 0.9893 0.9708
vt 1.0000 0.9730
vt 0.9826 1.0000
vt 0.0125 0.9708
vt 0.0196 0.9843
vt 0.0193 1.0000
vt 0.0025 0.9730
vt 0.9826 0.0297
vt 0.9826 0.9708
vt 0.0196 0.9708
vt 0.0196 0.0297
vn -0.3494 -0.3399 0.8732
vn -0.3494 -0.8732 0.3399
vn -0.0167 -0.9233 0.3838
vn -0.0167 -0.3838 0.9232
vn -0.3494 -0.8732 -0.3399
vn -0.3494 -0.3399 -0.8732
vn -0.0167 -0.3838 -0.9232
vn -0.0167 -0.9232 -0.3838
vn -0.3493 0.8732 0.3399
vn -0.3493 0.3399 0.8732
vn -0.0167 0.3838 0.9233
vn -0.0167 0.9232 0.3839
vn -0.3494 0.3399 -0.8732
vn -0.3494 0.8732 -0.3399
vn -0.0167 0.9232 -0.3839
vn -0.0167 0.3838 -0.9233
vn -0.8756 -0.3416 0.3416
vn -0.8756 0.3416 0.3416
vn -0.8756 0.3416 -0.3416
vn -0.8756 -0.3416 -0.3416
usemtl None
s 1
f 17/1/1 10/2/2 1/3/3
f 18/4/4 17/1/1 1/3/3
f 2/5/5 20/6/6 3/7/7
f 4/8/8 2/5/5 3/7/7
f 5/9/9 7/10/10 6/11/11
f 12/12/12 5/9/9 6/11/11
f 9/13/13 11/14/14 13/15/15
f 16/16/16 9/13/13 13/15/15
f 19/17/17 17/1/1 7/10/10
f 8/18/18 19/17/17 7/10/10
f 8/18/18 5/9/9 11/14/14
f 14/19/19 8/18/18 11/14/14
f 20/6/6 15/20/20 14/19/19
f 9/13/13 20/6/6 14/19/19
f 10/2/2 19/17/17 15/20/20
f 2/5/5 10/2/2 15/20/20
f 11/14/14 5/9/9 12/12/12
f 13/15/15 11/14/14 12/12/12
f 14/19/19 15/20/20 19/17/17
f 8/18/18 14/19/19 19/17/17
f 1/3/3 10/2/2 2/5/5
f 4/8/8 1/3/3 2/5/5
f 3/7/7 20/6/6 9/13/13
f 16/16/16 3/7/7 9/13/13
f 7/10/10 17/1/1 18/4/4
f 6/11/11 7/10/10 18/4/4
f 5/9/9 8/18/18 7/10/10
f 11/14/14 9/13/13 14/19/19
f 19/17/17 10/2/2 17/1/1
f 15/20/20 20/6/6 2/5/5
