# Blender v2.77 (sub 0) OBJ File: 'ParlorMeasurement.blend'
# www.blender.org
mtllib backwallfar.mtl
o Main.001_Combined_Mesh_(root:_scene).002
v 11.570169 -1.601940 -15.730255
v 11.559925 -1.602535 -15.740507
v 5.364556 -0.236386 -15.730253
v 5.374802 -1.602535 -15.740505
v 5.364556 -1.601940 -15.730253
v 11.559330 -0.225547 -15.710495
v 5.374802 -0.235791 -15.740505
v 11.559330 -0.225547 -15.730255
v 11.559924 -0.235791 -15.740507
v 5.375396 -0.225547 -15.710497
v 5.364556 -0.236386 -15.710491
v 5.364556 -1.601940 -15.710491
v 11.559330 -1.612780 -15.710495
v 11.559330 -1.601940 -15.699656
v 5.375396 -0.236386 -15.699654
v 5.375396 -1.612780 -15.730253
v 11.559330 -1.612780 -15.730255
v 11.570169 -0.236386 -15.730255
v 5.375396 -0.225547 -15.730253
v 11.559330 -0.236386 -15.699656
v 11.570169 -0.236386 -15.710495
v 11.570169 -1.601940 -15.710493
v 5.375396 -1.601940 -15.699654
v 5.375396 -1.612780 -15.710497
vt 0.9396 0.0163
vt 0.9396 0.0161
vt 0.9402 0.0067
vt 0.9402 0.0069
vt 0.0591 0.0067
vt 0.0588 0.0000
vt 0.9402 0.0000
vt 0.9402 0.9998
vt 0.9402 0.9929
vt 0.0596 0.0161
vt 0.0596 0.0163
vt 0.0591 0.0069
vt 0.0591 0.9929
vt 0.0588 0.9998
vt 0.9396 0.9838
vt 0.9396 0.9833
vt 0.9402 0.9929
vt 0.0591 0.9929
vt 0.0596 0.9833
vt 0.0596 0.9838
vt 0.9391 0.0227
vt 0.9391 0.9769
vt 0.0599 0.9769
vt 0.0599 0.0227
vn 0.8755 -0.3416 0.3416
vn 0.3416 -0.8756 0.3416
vn 0.3393 -0.8779 -0.3379
vn 0.8779 -0.3393 -0.3379
vn -0.3393 -0.8779 -0.3380
vn -0.4683 -0.4683 -0.7493
vn 0.4684 -0.4683 -0.7492
vn 0.4683 0.4683 -0.7493
vn 0.8779 0.3392 -0.3380
vn -0.3416 -0.8756 0.3415
vn -0.8756 -0.3416 0.3416
vn -0.8779 -0.3393 -0.3380
vn -0.8779 0.3393 -0.3380
vn -0.4683 0.4683 -0.7492
vn 0.3416 0.8756 0.3416
vn 0.8756 0.3416 0.3416
vn 0.3393 0.8779 -0.3380
vn -0.3393 0.8779 -0.3380
vn -0.8755 0.3417 0.3416
vn -0.3415 0.8757 0.3414
vn 0.3415 -0.3416 0.8756
vn 0.3416 0.3416 0.8756
vn -0.3414 0.3417 0.8756
vn -0.3415 -0.3416 0.8756
usemtl None
s 1
f 22/1/1 13/2/2 17/3/3
f 1/4/4 22/1/1 17/3/3
f 16/5/5 4/6/6 2/7/7
f 17/3/3 16/5/5 2/7/7
f 9/8/8 18/9/9 1/4/4
f 2/7/7 9/8/8 1/4/4
f 24/10/10 12/11/11 5/12/12
f 16/5/5 24/10/10 5/12/12
f 3/13/13 7/14/14 4/6/6
f 5/12/12 3/13/13 4/6/6
f 6/15/15 21/16/16 18/9/9
f 8/17/17 6/15/15 18/9/9
f 7/14/14 19/18/18 8/17/17
f 9/8/8 7/14/14 8/17/17
f 11/19/19 10/20/20 19/18/18
f 3/13/13 11/19/19 19/18/18
f 14/21/21 22/1/1 21/16/16
f 20/22/22 14/21/21 21/16/16
f 10/20/20 15/23/23 20/22/22
f 6/15/15 10/20/20 20/22/22
f 12/11/11 23/24/24 15/23/23
f 11/19/19 12/11/11 15/23/23
f 23/24/24 24/10/10 13/2/2
f 14/21/21 23/24/24 13/2/2
f 10/20/20 6/15/15 8/17/17
f 19/18/18 10/20/20 8/17/17
f 23/24/24 14/21/21 20/22/22
f 15/23/23 23/24/24 20/22/22
f 16/5/5 17/3/3 13/2/2
f 24/10/10 16/5/5 13/2/2
f 11/19/19 3/13/13 5/12/12
f 12/11/11 11/19/19 5/12/12
f 18/9/9 21/16/16 22/1/1
f 1/4/4 18/9/9 22/1/1
f 2/7/7 1/4/4 17/3/3
f 4/6/6 16/5/5 5/12/12
f 9/8/8 8/17/17 18/9/9
f 7/14/14 3/13/13 19/18/18
f 6/15/15 20/22/22 21/16/16
f 10/20/20 11/19/19 15/23/23
f 14/21/21 13/2/2 22/1/1
f 23/24/24 12/11/11 24/10/10
