# Blender v2.77 (sub 0) OBJ File: 'ParlorMeasurement.blend'
# www.blender.org
mtllib carpet.mtl
o Main.001_Combined_Mesh_(root:_scene).002
v -0.186011 -2.824379 -5.015626
v -0.186011 -2.824379 -6.690534
v -0.545197 -2.824328 -6.690150
v -0.561964 -2.841095 -5.016010
v -0.561151 -2.929869 -6.691159
v -0.186011 -2.948070 -6.690534
v -0.543712 -2.947308 -6.691159
v -0.186011 -2.948071 -5.015626
v -0.545197 -2.824328 -5.016010
v -0.543712 -2.947309 -5.015001
v -0.561151 -2.929869 -5.015001
v -0.561964 -2.841095 -6.690150
v -0.549394 -3.048669 -6.690534
v -0.549394 -3.172359 -5.015626
v -0.907095 -3.171597 -6.691159
v -0.925346 -3.065384 -5.016010
v -0.925346 -3.065384 -6.690150
v -0.549394 -3.172359 -6.690534
v -0.924533 -3.154159 -6.691159
v -0.549394 -3.048669 -5.015626
v -0.907095 -3.171597 -5.015001
v -0.924533 -3.154159 -5.015001
v -0.908580 -3.048618 -6.690150
v -0.908580 -3.048619 -5.016010
v -0.803169 -3.276909 -5.015626
v -1.162357 -3.276859 -5.016010
v -0.803169 -3.400600 -6.690534
v -0.803169 -3.400600 -5.015626
v -1.179121 -3.293625 -6.690150
v -1.179121 -3.383885 -6.690150
v -0.803169 -3.276909 -6.690534
v -1.162357 -3.276858 -6.690150
v -1.162357 -3.400651 -5.016010
v -1.179121 -3.293626 -5.016010
v -1.179121 -3.383885 -5.016010
v -1.162357 -3.400651 -6.690150
v -1.438210 -3.501398 -6.690150
v -1.438210 -3.501399 -5.016010
v -1.079023 -3.625140 -6.690534
v -1.438210 -3.625191 -5.016010
v -1.454974 -3.518165 -6.690150
v -1.079023 -3.501449 -6.690534
v -1.438210 -3.625191 -6.690150
v -1.454974 -3.608424 -6.690150
v -1.079023 -3.625140 -5.015626
v -1.079023 -3.501450 -5.015626
v -1.454974 -3.518166 -5.016010
v -1.454974 -3.608424 -5.016010
v 8.583156 -2.614040 -1.420463
v 14.256540 -2.601967 3.427971
v 8.583981 -2.613435 6.194766
v 14.213530 -2.602138 3.692434
v 14.213638 -2.602232 6.195247
v 8.552570 -2.613319 6.301806
v 8.460649 -2.613414 6.398348
v 8.136384 -2.602232 11.687263
v 8.135935 -2.613447 6.524824
v 7.314673 -2.602232 11.687263
v 0.843867 -2.602883 11.686617
v 0.843585 -2.602813 5.596217
v 6.867078 -2.613436 6.194766
v 1.728793 -2.603007 5.380623
v 3.615539 -2.603911 4.398363
v 5.387983 -2.603304 1.495179
v 6.851823 -2.602298 -1.705054
v 5.550493 -2.602190 0.124746
v 5.424620 -2.602152 -1.260433
v 5.209809 -2.605309 -1.956700
v 4.898710 -2.605445 -2.630753
v 6.425639 -2.613679 -3.476834
v 6.099740 -2.613641 -4.044616
v 5.742149 -2.613641 -4.584867
v 4.083972 -2.605374 -3.749203
v 4.810964 -2.613678 -5.620202
v 4.324356 -2.613666 -5.971333
v 2.995095 -2.605545 -4.600911
v 9.424519 -2.613525 -2.247332
v 9.612121 -2.613526 -2.572269
v 9.975849 -2.602638 -6.514693
v 15.973354 -2.602880 -1.933092
v 12.226068 -2.601942 -8.447802
v 16.076031 -2.602884 -11.771041
v 14.662672 -2.621796 3.003438
v 14.417479 -2.621796 3.198244
v 8.582195 -2.633160 -1.420941
v 8.927777 -2.633160 -1.682887
v 8.136384 -2.621798 11.688731
v 7.314673 -2.621798 11.688731
v 14.213640 -2.621798 11.687266
v 14.212992 -2.602883 11.686617
v 0.843217 -2.621798 11.687266
v 7.134607 -2.633161 6.473804
v 7.134014 -2.613472 6.475286
v 7.315123 -2.613447 6.524824
v 7.315338 -2.633161 6.523215
v 8.135719 -2.633161 6.523215
v 8.317044 -2.613472 6.475286
v 14.215105 -2.621797 6.195247
v 14.215090 -2.621796 3.692561
v 8.551039 -2.633161 6.300921
v 8.316451 -2.633161 6.473804
v 8.459643 -2.633161 6.397028
v 6.990407 -2.613414 6.398348
v 0.842823 -2.621797 5.595618
v 6.898487 -2.613319 6.301806
v 6.900019 -2.633161 6.300921
v 6.991414 -2.633161 6.397028
v 3.043814 -2.623785 4.807343
v 14.254341 -2.602231 3.443678
v 14.255791 -2.621796 3.443914
v 14.416275 -2.602059 3.197117
v 14.258167 -2.621796 3.428627
v 8.582360 -2.633161 6.194531
v 14.907873 -2.621796 2.871398
v 9.194088 -2.613526 -1.947029
v 14.907328 -2.602042 2.869822
v 14.661806 -2.602129 3.002125
v 8.928791 -2.613522 -1.681724
v 9.192932 -2.633160 -1.948043
v 15.513609 -2.601253 -1.934465
v 15.457399 -2.621796 2.816547
v 15.456736 -2.602869 2.815898
v 15.155830 -2.602152 2.826672
v 15.155991 -2.621796 2.828214
v 9.423240 -2.633159 -2.248187
v 9.610742 -2.633159 -2.572950
v 15.515617 -2.621796 -1.932437
v 9.926681 -2.633159 -4.035732
v 9.928162 -2.613579 -4.035659
v 9.974854 -2.621795 -6.515163
v 9.902131 -2.633159 -3.661157
v 9.903622 -2.613564 -3.661010
v 9.755520 -2.633159 -2.922474
v 9.756975 -2.613526 -2.921979
v 9.854085 -2.613526 -3.284400
v 9.852577 -2.633159 -3.284700
v 16.076683 -2.621794 -11.771685
v 15.974001 -2.621796 -1.932439
v 12.410719 -2.602010 -8.916086
v 12.409046 -2.621794 -8.916404
v 12.224617 -2.621794 -8.448834
v 12.411072 -2.602881 -11.771054
v 12.410422 -2.621794 -11.771703
v 0.040092 -2.603936 -6.629145
v 0.039443 -2.622856 -6.629798
v 0.039404 -2.622899 -5.326716
v 1.106198 -2.626034 -5.302643
v 0.040063 -2.603976 -5.327365
v 3.614524 -2.623573 4.397169
v 4.082973 -2.603932 3.929120
v 4.081816 -2.623569 3.928101
v 2.409769 -2.623564 5.131667
v 2.410388 -2.603928 5.133078
v 3.044626 -2.604133 4.808673
v 1.728346 -2.622637 5.379156
v 2.554678 -2.633159 -6.631238
v 3.169823 -2.633159 -6.519681
v 2.394558 -2.625238 -4.917977
v 2.554560 -2.613704 -6.629883
v 1.765104 -2.625485 -5.132334
v 1.765536 -2.605872 -5.133788
v 1.106428 -2.606336 -5.304234
v 4.325109 -2.633159 -5.972509
v 3.169456 -2.613708 -6.518375
v 3.763163 -2.613685 -6.288538
v 3.763752 -2.633159 -6.289785
v 2.395179 -2.605576 -4.919416
v 4.811848 -2.633159 -5.621270
v 5.329793 -2.613696 -5.129570
v 5.330813 -2.633159 -5.130483
v 3.586757 -2.625055 -4.184865
v 3.587707 -2.605421 -4.186074
v 2.994289 -2.625185 -4.599593
v 4.556741 -2.624802 -3.170539
v 4.082844 -2.625037 -3.748113
v 4.557996 -2.605159 -3.171443
v 5.743309 -2.633159 -4.585689
v 6.100949 -2.633159 -4.045362
v 5.208370 -2.624950 -1.956134
v 4.897348 -2.625089 -2.630014
v 6.426883 -2.633159 -3.477442
v 6.712933 -2.613750 -2.772551
v 6.714211 -2.633159 -2.772876
v 5.535719 -2.602154 -0.571597
v 5.423113 -2.621796 -1.260073
v 5.511959 -2.622181 0.806106
v 5.548984 -2.621796 0.124720
v 5.534180 -2.621796 -0.571457
v 5.386490 -2.622937 1.494813
v 5.513491 -2.602542 0.806291
v 6.853222 -2.621796 -1.705131
v 6.868696 -2.633161 6.194527
v 5.202850 -2.603705 2.102510
v 4.868131 -2.623543 2.790668
v 5.201397 -2.623361 2.101939
v 4.513991 -2.623444 3.370538
v 4.515254 -2.603814 3.371409
v 4.869471 -2.603921 2.791399
vt 0.0961 0.0583
vt 0.0961 0.4417
vt 0.0139 0.4417
vt 0.0139 0.0583
vt 0.2096 0.0583
vt 0.2096 0.4417
vt 0.1273 0.4417
vt 0.1273 0.0583
vt 0.2571 0.0485
vt 0.2571 0.4514
vt 0.2349 0.4514
vt 0.2349 0.0485
vt 0.7378 0.5142
vt 0.7646 0.5142
vt 0.7646 0.5962
vt 0.7378 0.5962
vt 0.7612 0.5996
vt 0.7412 0.5996
vt 0.6973 0.5142
vt 0.7241 0.5142
vt 0.7241 0.5962
vt 0.6973 0.5962
vt 0.7207 0.5996
vt 0.7007 0.5996
vt 0.2607 0.4514
vt 0.2607 0.0485
vt 0.3643 0.0583
vt 0.3643 0.4417
vt 0.2820 0.4417
vt 0.2820 0.0583
vt 0.4775 0.0583
vt 0.4775 0.4417
vt 0.3953 0.4417
vt 0.3953 0.0583
vt 0.5249 0.0485
vt 0.5249 0.4514
vt 0.5029 0.4514
vt 0.5029 0.0485
vt 0.6572 0.5142
vt 0.6841 0.5142
vt 0.6841 0.5962
vt 0.6572 0.5962
vt 0.6807 0.5996
vt 0.6606 0.5996
vt 0.6167 0.5142
vt 0.6436 0.5142
vt 0.6436 0.5967
vt 0.6167 0.5967
vt 0.6401 0.5996
vt 0.6201 0.5996
vt 0.5288 0.4514
vt 0.5288 0.0485
vt 0.6323 0.0583
vt 0.6323 0.4417
vt 0.5498 0.4417
vt 0.5498 0.0583
vt 0.7456 0.0583
vt 0.7456 0.4417
vt 0.6631 0.4417
vt 0.6631 0.0583
vt 0.7930 0.0485
vt 0.7930 0.4514
vt 0.7710 0.4514
vt 0.7710 0.0485
vt 0.5762 0.5142
vt 0.6030 0.5142
vt 0.6030 0.5962
vt 0.5762 0.5962
vt 0.5996 0.5996
vt 0.5796 0.5996
vt 0.5361 0.5142
vt 0.5630 0.5142
vt 0.5630 0.5962
vt 0.5361 0.5962
vt 0.5596 0.5996
vt 0.5396 0.5996
vt 0.7969 0.4514
vt 0.7969 0.0485
vt 0.7671 0.4514
vt 0.7671 0.0485
vt 0.9004 0.0583
vt 0.9004 0.4417
vt 0.8179 0.4417
vt 0.8179 0.0583
vt 0.9087 0.5581
vt 0.9087 0.9414
vt 0.8267 0.9414
vt 0.8267 0.5581
vt 0.8027 0.5483
vt 0.8027 0.9512
vt 0.7803 0.9512
vt 0.7803 0.5483
vt 0.4958 0.5142
vt 0.5225 0.5142
vt 0.5225 0.5962
vt 0.4958 0.5962
vt 0.5190 0.5996
vt 0.4993 0.5996
vt 0.4553 0.5142
vt 0.4822 0.5142
vt 0.4822 0.5962
vt 0.4553 0.5962
vt 0.4790 0.5996
vt 0.4587 0.5996
vt 0.8062 0.9512
vt 0.8062 0.5483
vt 0.7769 0.9512
vt 0.7769 0.5483
vt 0.0274 0.3225
vt 1.3184 1.8320
vt 1.2559 1.8750
vt -0.0419 0.4143
vt 1.2041 1.9404
vt -0.1127 0.4849
vt 1.3223 1.8311
vt 2.0547 0.3225
vt 1.3887 1.8203
vt 2.0547 1.8203
vt 2.0840 0.3142
vt 3.5176 1.8203
vt 2.1094 0.2893
vt 2.1309 0.2510
vt 3.5176 0.2025
vt 2.1445 0.2025
vt 3.5176 -0.0163
vt 2.1445 -0.0163
vt 2.1309 -0.0648
vt 3.5176 -1.7393
vt 2.1094 -0.1032
vt 2.0840 -0.1279
vt 1.8965 -1.7393
vt 2.0547 -0.1364
vt 1.8398 -1.5039
vt 1.7734 -1.3223
vt 1.6865 -1.1533
vt 1.5771 -1.0010
vt 1.4521 -0.8765
vt 1.3037 -0.7612
vt 1.1494 -0.6665
vt 0.9658 -0.5776
vt 0.8037 -0.5283
vt -0.0488 -0.1405
vt 0.6201 -0.4951
vt 0.4385 -0.4854
vt 0.2529 -0.4893
vt 0.0694 -0.5186
vt -0.1162 -0.5762
vt -0.3330 -0.1775
vt -0.2959 -0.6592
vt -0.5200 -0.2539
vt -0.6714 -0.3406
vt -0.4399 -0.7500
vt -0.8154 -0.4360
vt -0.5938 -0.8760
vt -0.9604 -0.5454
vt -0.7104 -1.0078
vt -1.0908 -0.6836
vt -1.1846 -0.8135
vt -0.8208 -1.1660
vt -1.2686 -0.9629
vt -1.3301 -1.1201
vt -0.9058 -1.3262
vt -1.3594 -1.2842
vt -0.9629 -1.4941
vt -1.0078 -1.6699
vt -1.3594 -1.9531
vt -1.0146 -1.9531
vt 1.1689 2.0059
vt -0.1927 0.5464
vt 1.1572 2.0723
vt -0.2793 0.5962
vt 1.1543 2.1504
vt -0.1104 2.1660
vt -0.3726 0.6348
vt -0.4692 0.6611
vt -0.5698 0.6743
vt -0.6694 0.6807
vt -1.3291 0.6934
vt -0.1104 2.2891
vt -1.8447 1.2920
vt -2.7285 2.3164
vt -1.9697 1.3418
vt -2.7285 1.3418
vt 1.2041 1.9404
vt 1.2559 1.8750
vt 0.0274 0.3225
vt -0.0419 0.4143
vt 2.0840 0.3142
vt 2.0547 0.3225
vt 2.1445 -0.0163
vt 2.1445 0.2025
vt 3.5176 0.2025
vt 3.5176 -0.0163
vt 3.5176 1.8203
vt 3.5176 -1.7393
vt 2.1309 -0.0648
vt 2.1309 0.2510
vt 2.0547 1.8203
vt 1.3887 1.8203
vt 2.1094 0.2893
vt 2.0840 -0.1279
vt 2.1094 -0.1032
vt 1.8965 -1.7393
vt 2.0547 -0.1364
vt 1.4521 -0.8765
vt 1.3037 -0.7612
vt 1.6865 -1.1533
vt 1.5771 -1.0010
vt 1.3184 1.8320
vt 1.3223 1.8311
vt 1.1572 2.0723
vt 1.1689 2.0059
vt -0.1127 0.4849
vt -0.1927 0.5464
vt -0.1104 2.1660
vt 1.1543 2.1504
vt -0.2793 0.5962
vt -0.3726 0.6348
vt -0.1104 2.2891
vt -0.6694 0.6807
vt -1.3291 0.6934
vt -0.5698 0.6743
vt -0.4692 0.6611
vt -2.7285 2.3164
vt -1.8447 1.2920
vt -1.9697 1.3418
vt -2.7285 1.3418
vt -1.0146 -1.9531
vt -1.3594 -1.9531
vt -1.0078 -1.6699
vt 1.7734 -1.3223
vt 1.8398 -1.5039
vt -1.3594 -1.2842
vt -1.3301 -1.1201
vt -0.9058 -1.3262
vt -0.9629 -1.4941
vt -1.1846 -0.8135
vt -1.0908 -0.6836
vt -1.2686 -0.9629
vt -0.8208 -1.1660
vt -0.9604 -0.5454
vt -0.5938 -0.8760
vt -0.7104 -1.0078
vt -0.8154 -0.4360
vt -0.4399 -0.7500
vt -0.6714 -0.3406
vt -0.5200 -0.2539
vt -0.2959 -0.6592
vt -0.3330 -0.1775
vt -0.0488 -0.1405
vt -0.1162 -0.5762
vt 0.0694 -0.5186
vt 0.2529 -0.4893
vt 0.6201 -0.4951
vt 0.4385 -0.4854
vt 0.8037 -0.5283
vt 0.9658 -0.5776
vt 1.1494 -0.6665
vn -0.0007 0.7068 0.7074
vn 0.0009 0.7074 -0.7068
vn -0.2976 0.7198 -0.6272
vn -0.2972 0.7193 0.6279
vn -0.0003 -0.7080 -0.7062
vn -0.0018 -0.7074 0.7068
vn 0.0019 -0.5487 0.8360
vn 0.0008 -0.5498 -0.8353
vn -0.7216 0.2973 0.6252
vn -0.7226 0.2983 -0.6236
vn -0.5464 0.0021 -0.8375
vn -0.5437 0.0046 0.8393
vn -0.5463 0.0021 -0.8376
vn -0.0007 0.7068 -0.7074
vn -0.2974 0.7173 -0.6300
vn -0.2974 0.7173 0.6300
vn -0.0007 -0.7068 -0.7074
vn -0.0007 -0.7068 0.7074
vn -0.2974 -0.7174 0.6300
vn -0.2974 -0.7174 -0.6300
vn -0.7173 0.2971 0.6303
vn -0.7173 0.2971 -0.6303
vn -0.7173 -0.2971 -0.6303
vn -0.7173 -0.2971 0.6303
vn -0.2974 -0.7173 -0.6300
vn -0.6882 0.6398 -0.3421
vn 0.5637 0.7933 0.2298
vn 0.4667 0.7692 0.4365
vn -0.4358 0.7489 -0.4992
vn 0.3609 0.7548 0.5478
vn -0.4990 0.7480 -0.4376
vn 0.6729 0.7318 0.1084
vn -0.6352 0.7668 -0.0922
vn 0.6555 0.7533 0.0530
vn 0.6794 0.7337 0.0001
vn -0.5300 0.7909 -0.3057
vn 0.5679 0.5957 0.5680
vn -0.3857 0.7714 -0.5062
vn -0.2409 0.7593 -0.6045
vn 0.0001 0.7338 0.6793
vn -0.0858 0.7644 -0.6390
vn -0.0001 0.7338 0.6793
vn 0.0858 0.7645 -0.6390
vn 0.2410 0.7593 -0.6044
vn -0.5680 0.5957 0.5679
vn 0.3862 0.7711 -0.5062
vn 0.5305 0.7905 -0.3061
vn -0.6227 0.6105 -0.4894
vn 0.6357 0.7665 -0.0919
vn -0.1923 0.7476 -0.6357
vn -0.2640 0.7485 -0.6083
vn -0.3434 0.7520 -0.5627
vn -0.4262 0.7537 -0.5003
vn -0.4978 0.7487 -0.4378
vn -0.5478 0.7472 -0.3763
vn -0.5850 0.7456 -0.3191
vn -0.6134 0.7525 -0.2399
vn -0.6454 0.7477 -0.1560
vn 0.6923 0.7200 -0.0470
vn -0.6581 0.7491 -0.0766
vn -0.6700 0.7423 -0.0107
vn -0.6592 0.7496 0.0599
vn -0.6436 0.7510 0.1477
vn -0.6191 0.7497 0.2337
vn 0.6888 0.7009 -0.1851
vn -0.5810 0.7502 0.3156
vn 0.6274 0.7160 -0.3062
vn 0.5871 0.7239 -0.3623
vn -0.5368 0.7497 0.3871
vn 0.5628 0.7240 -0.3988
vn -0.4725 0.7540 0.4563
vn 0.5224 0.7126 -0.4682
vn -0.4104 0.7479 0.5218
vn 0.4449 0.7162 -0.5376
vn 0.3751 0.7187 -0.5855
vn -0.3460 0.7492 0.5648
vn 0.2990 0.7148 -0.6322
vn 0.1909 0.7097 -0.6781
vn -0.2610 0.7539 0.6030
vn 0.0640 0.7103 -0.7010
vn -0.1920 0.7437 0.6403
vn -0.0870 0.7613 0.6426
vn -0.5673 0.5963 -0.5679
vn -0.5728 0.5976 0.5610
vn 0.2075 0.7730 0.5995
vn -0.5517 0.7480 -0.3689
vn 0.0706 0.7505 0.6570
vn -0.5955 0.7479 -0.2933
vn 0.5732 0.5986 0.5595
vn 0.2719 0.9231 0.2721
vn -0.6287 0.7478 -0.2132
vn -0.6512 0.7478 -0.1295
vn -0.6694 0.7400 -0.0660
vn -0.6794 0.7325 -0.0429
vn -0.6900 0.6475 -0.3234
vn 0.5646 0.5954 0.5716
vn -0.4968 0.7927 -0.3533
vn 0.5714 0.5948 -0.5655
vn -0.6162 0.7788 -0.1173
vn -0.5680 0.5953 -0.5684
vn 0.5484 0.0798 0.8324
vn 0.7276 0.0834 0.6810
vn -0.8939 0.0565 -0.4448
vn -0.6551 0.0784 -0.7515
vn -0.8630 0.0886 -0.4975
vn -0.9864 0.0827 -0.1421
vn 0.1326 0.0821 -0.9878
vn -0.1326 0.0820 -0.9878
vn 0.0001 0.0749 0.9972
vn -0.0001 0.0748 0.9972
vn 0.7062 0.0485 0.7063
vn -0.7063 0.0485 0.7062
vn 0.3693 0.0809 -0.9258
vn -0.3691 0.0809 -0.9258
vn 0.9972 0.0747 0.0001
vn 0.9936 0.0795 0.0808
vn -0.6039 0.0839 -0.7926
vn 0.8627 0.0886 -0.4980
vn 0.6040 0.0837 -0.7926
vn -0.7852 0.0513 -0.6171
vn 0.9863 0.0829 -0.1428
vn -0.7486 0.0783 -0.6584
vn -0.8207 0.0779 -0.5661
vn -0.5193 0.0791 -0.8509
vn -0.6462 0.0794 -0.7590
vn 0.9266 0.0849 0.3664
vn 0.9847 0.0750 0.1573
vn 0.1048 0.0788 0.9914
vn 0.3260 0.0841 0.9416
vn -0.7495 0.0781 -0.6573
vn -0.8289 0.0781 -0.5539
vn 0.6961 0.1375 0.7046
vn 0.7145 0.0502 0.6978
vn -0.8941 0.0780 -0.4409
vn -0.9440 0.0782 -0.3204
vn 0.7016 0.0498 0.7109
vn -0.9970 0.0754 -0.0189
vn -0.9035 0.0575 -0.4248
vn -0.9923 0.0762 -0.0977
vn -0.9778 0.0780 -0.1944
vn 0.7100 0.0485 -0.7026
vn -0.8117 0.0894 -0.5773
vn -0.9788 0.0856 -0.1861
vn -0.7061 0.0485 -0.7064
vn -0.7131 0.0492 0.6993
vn -0.7053 0.0488 -0.7072
vn -0.1368 0.0813 0.9873
vn -0.3979 0.0782 -0.9141
vn -0.2889 0.0779 -0.9542
vn 0.0893 0.0698 -0.9936
vn 0.2703 0.0696 -0.9603
vn -0.3956 0.0795 0.9150
vn -0.2857 0.0771 0.9552
vn 0.5380 0.0715 -0.8399
vn 0.6359 0.0710 -0.7685
vn 0.4266 0.0707 -0.9017
vn -0.5206 0.0784 0.8502
vn 0.7429 0.0702 -0.6657
vn -0.7170 0.0795 0.6925
vn -0.6162 0.0781 0.7837
vn 0.8138 0.0726 -0.5766
vn -0.8086 0.0785 0.5830
vn 0.8488 0.0726 -0.5238
vn 0.8964 0.0709 -0.4376
vn -0.8761 0.0786 0.4756
vn 0.9644 0.0678 -0.2556
vn 0.9952 0.0717 -0.0660
vn -0.9310 0.0785 0.3565
vn -0.9708 0.0786 0.2268
vn -0.9928 0.0785 0.0902
vn -0.9901 0.0783 -0.1166
vn -0.9969 0.0768 -0.0165
vn -0.9688 0.0781 -0.2351
vn -0.9282 0.0791 -0.3635
vn -0.8752 0.0776 -0.4775
usemtl None
s 1
f 1/1/1 2/2/2 3/3/3
f 9/4/4 1/1/1 3/3/3
f 6/5/5 8/6/6 10/7/7
f 7/8/8 6/5/5 10/7/7
f 4/9/9 12/10/10 5/11/11
f 11/12/12 4/9/9 5/11/11
f 2/13/2 6/14/5 7/15/8
f 7/15/8 3/16/3 2/13/2
f 7/15/8 5/17/11 3/16/3
f 5/17/11 12/18/10 3/16/3
f 8/19/6 1/20/1 9/21/4
f 9/21/4 10/22/7 8/19/6
f 9/21/4 4/23/9 10/22/7
f 4/23/9 11/24/12 10/22/7
f 3/25/3 12/10/10 4/9/9
f 9/26/4 3/25/3 4/9/9
f 20/27/1 13/28/2 23/29/3
f 24/30/4 20/27/1 23/29/3
f 18/31/5 14/32/6 21/33/7
f 15/34/8 18/31/5 21/33/7
f 16/35/9 17/36/10 19/37/13
f 22/38/12 16/35/9 19/37/13
f 13/39/2 18/40/5 15/41/8
f 15/41/8 23/42/3 13/39/2
f 15/41/8 19/43/13 23/42/3
f 19/43/13 17/44/10 23/42/3
f 14/45/6 20/46/1 24/47/4
f 24/47/4 21/48/7 14/45/6
f 24/47/4 16/49/9 21/48/7
f 16/49/9 22/50/12 21/48/7
f 23/51/3 17/36/10 16/35/9
f 24/52/4 23/51/3 16/35/9
f 25/53/1 31/54/14 32/55/15
f 26/56/16 25/53/1 32/55/15
f 27/57/17 28/58/18 33/59/19
f 36/60/20 27/57/17 33/59/19
f 34/61/21 29/62/22 30/63/23
f 35/64/24 34/61/21 30/63/23
f 31/65/14 27/66/17 36/67/20
f 36/67/20 32/68/15 31/65/14
f 36/67/20 30/69/23 32/68/15
f 30/69/23 29/70/22 32/68/15
f 28/71/18 25/72/1 26/73/16
f 26/73/16 33/74/19 28/71/18
f 26/73/16 34/75/21 33/74/19
f 34/75/21 35/76/24 33/74/19
f 32/77/15 29/62/22 34/61/21
f 26/78/16 32/77/15 34/61/21
f 30/63/23 36/79/20 33/80/19
f 35/64/24 30/63/23 33/80/19
f 46/81/1 42/82/14 37/83/15
f 38/84/16 46/81/1 37/83/15
f 39/85/17 45/86/18 40/87/19
f 43/88/25 39/85/17 40/87/19
f 47/89/21 41/90/22 44/91/23
f 48/92/24 47/89/21 44/91/23
f 42/93/14 39/94/17 43/95/25
f 43/95/25 37/96/15 42/93/14
f 43/95/25 44/97/23 37/96/15
f 44/97/23 41/98/22 37/96/15
f 45/99/18 46/100/1 38/101/16
f 38/101/16 40/102/19 45/99/18
f 38/101/16 47/103/21 40/102/19
f 47/103/21 48/104/24 40/102/19
f 37/105/15 41/90/22 47/89/21
f 38/106/16 37/105/15 47/89/21
f 44/91/23 43/107/25 40/108/19
f 48/92/24 44/91/23 40/108/19
f 49/109/26 50/110/27 111/111/28
f 118/112/29 49/109/26 111/111/28
f 111/111/28 117/113/30 118/112/29
f 117/113/30 115/114/31 118/112/29
f 50/110/27 49/109/26 109/115/32
f 49/109/26 51/116/33 109/115/32
f 51/116/33 52/117/34 109/115/32
f 53/118/35 52/117/34 51/116/33
f 53/118/35 51/116/33 54/119/36
f 90/120/37 53/118/35 54/119/36
f 55/121/38 90/120/37 54/119/36
f 97/122/39 90/120/37 55/121/38
f 56/123/40 90/120/37 97/122/39
f 57/124/41 56/123/40 97/122/39
f 56/123/40 57/124/41 58/125/42
f 57/124/41 94/126/43 58/125/42
f 94/126/43 93/127/44 58/125/42
f 93/127/44 59/128/45 58/125/42
f 59/128/45 93/127/44 103/129/46
f 105/130/47 59/128/45 103/129/46
f 59/128/45 105/130/47 60/131/48
f 105/130/47 61/132/49 60/131/48
f 61/132/49 62/133/50 60/131/48
f 153/134/51 62/133/50 61/132/49
f 61/132/49 154/135/52 153/134/51
f 61/132/49 63/136/53 154/135/52
f 150/137/54 63/136/53 61/132/49
f 150/137/54 61/132/49 197/138/55
f 198/139/56 197/138/55 61/132/49
f 193/140/57 198/139/56 61/132/49
f 64/141/58 193/140/57 61/132/49
f 61/132/49 65/142/59 64/141/58
f 65/142/59 190/143/60 64/141/58
f 66/144/61 190/143/60 65/142/59
f 184/145/62 66/144/61 65/142/59
f 67/146/63 184/145/62 65/142/59
f 68/147/64 67/146/63 65/142/59
f 182/148/65 68/147/64 65/142/59
f 68/147/64 182/148/65 69/149/66
f 182/148/65 70/150/67 69/149/66
f 70/150/67 71/151/68 69/149/66
f 71/151/68 176/152/69 69/149/66
f 71/151/68 72/153/70 176/152/69
f 176/152/69 72/153/70 73/154/71
f 72/153/70 169/155/72 73/154/71
f 73/154/71 169/155/72 172/156/73
f 169/155/72 74/157/74 172/156/73
f 74/157/74 75/158/75 172/156/73
f 172/156/73 75/158/75 76/159/76
f 75/158/75 165/160/77 76/159/76
f 165/160/77 164/161/78 76/159/76
f 164/161/78 167/162/79 76/159/76
f 164/161/78 159/163/80 167/162/79
f 159/163/80 161/164/81 167/162/79
f 159/163/80 162/165/82 161/164/81
f 162/165/82 159/163/80 144/166/83
f 148/167/84 162/165/82 144/166/83
f 115/114/31 117/113/30 116/168/85
f 77/169/86 115/114/31 116/168/85
f 116/168/85 123/170/87 77/169/86
f 123/170/87 78/171/88 77/169/86
f 123/170/87 122/172/89 78/171/88
f 78/171/88 122/172/89 120/173/90
f 134/174/91 78/171/88 120/173/90
f 120/173/90 135/175/92 134/174/91
f 120/173/90 132/176/93 135/175/92
f 120/173/90 129/177/94 132/176/93
f 120/173/90 79/178/95 129/177/94
f 120/173/90 80/179/96 79/178/95
f 80/179/96 81/180/97 79/178/95
f 80/179/96 82/181/98 81/180/97
f 82/181/98 139/182/99 81/180/97
f 82/181/98 142/183/100 139/182/99
f 83/184/101 117/113/30 111/111/28
f 84/185/102 83/184/101 111/111/28
f 85/186/103 49/109/26 118/112/29
f 86/187/104 85/186/103 118/112/29
f 100/188/105 54/119/36 51/116/33
f 113/189/106 100/188/105 51/116/33
f 95/190/107 94/126/43 57/124/41
f 96/191/108 95/190/107 57/124/41
f 87/192/109 56/123/40 58/125/42
f 88/193/110 87/192/109 58/125/42
f 87/192/109 89/194/111 56/123/40
f 89/194/111 90/120/37 56/123/40
f 88/193/110 58/125/42 59/128/45
f 91/195/112 88/193/110 59/128/45
f 92/196/113 93/127/44 94/126/43
f 95/190/107 92/196/113 94/126/43
f 96/191/108 57/124/41 97/122/39
f 101/197/114 96/191/108 97/122/39
f 98/198/115 53/118/35 90/120/37
f 89/194/111 98/198/115 90/120/37
f 98/198/115 99/199/116 53/118/35
f 99/199/116 52/117/34 53/118/35
f 102/200/117 55/121/38 54/119/36
f 100/188/105 102/200/117 54/119/36
f 101/197/114 97/122/39 55/121/38
f 102/200/117 101/197/114 55/121/38
f 106/201/118 105/130/47 103/129/46
f 107/202/119 106/201/118 103/129/46
f 91/195/112 59/128/45 60/131/48
f 104/203/120 91/195/112 60/131/48
f 192/204/121 61/132/49 105/130/47
f 106/201/118 192/204/121 105/130/47
f 107/202/119 103/129/46 93/127/44
f 92/196/113 107/202/119 93/127/44
f 151/205/122 150/137/54 197/138/55
f 196/206/123 151/205/122 197/138/55
f 108/207/124 154/135/52 63/136/53
f 149/208/125 108/207/124 63/136/53
f 112/209/126 50/110/27 109/115/32
f 110/210/127 112/209/126 109/115/32
f 110/210/127 109/115/32 52/117/34
f 99/199/116 110/210/127 52/117/34
f 84/185/102 111/111/28 50/110/27
f 112/209/126 84/185/102 50/110/27
f 113/189/106 51/116/33 49/109/26
f 85/186/103 113/189/106 49/109/26
f 124/211/128 123/170/87 116/168/85
f 114/212/129 124/211/128 116/168/85
f 119/213/130 115/114/31 77/169/86
f 125/214/131 119/213/130 77/169/86
f 114/212/129 116/168/85 117/113/30
f 83/184/101 114/212/129 117/113/30
f 86/187/104 118/112/29 115/114/31
f 119/213/130 86/187/104 115/114/31
f 127/215/132 120/173/90 122/172/89
f 121/216/133 127/215/132 122/172/89
f 126/217/134 78/171/88 134/174/91
f 133/218/135 126/217/134 134/174/91
f 121/216/133 122/172/89 123/170/87
f 124/211/128 121/216/133 123/170/87
f 125/214/131 77/169/86 78/171/88
f 126/217/134 125/214/131 78/171/88
f 138/219/136 80/179/96 120/173/90
f 127/215/132 138/219/136 120/173/90
f 128/220/137 129/177/94 79/178/95
f 130/221/138 128/220/137 79/178/95
f 128/220/137 131/222/139 129/177/94
f 131/222/139 132/176/93 129/177/94
f 133/218/135 134/174/91 135/175/92
f 136/223/140 133/218/135 135/175/92
f 137/224/141 82/181/98 80/179/96
f 138/219/136 137/224/141 80/179/96
f 141/225/142 81/180/97 139/182/99
f 140/226/143 141/225/142 139/182/99
f 136/223/140 135/175/92 132/176/93
f 131/222/139 136/223/140 132/176/93
f 130/221/138 79/178/95 81/180/97
f 141/225/142 130/221/138 81/180/97
f 143/227/144 142/183/100 82/181/98
f 137/224/141 143/227/144 82/181/98
f 140/226/143 139/182/99 142/183/100
f 143/227/144 140/226/143 142/183/100
f 146/228/145 148/167/84 144/166/83
f 145/229/146 146/228/145 144/166/83
f 146/228/145 147/230/147 162/165/82
f 148/167/84 146/228/145 162/165/82
f 149/208/125 63/136/53 150/137/54
f 151/205/122 149/208/125 150/137/54
f 152/231/148 153/134/51 154/135/52
f 108/207/124 152/231/148 154/135/52
f 155/232/149 62/133/50 153/134/51
f 152/231/148 155/232/149 153/134/51
f 104/203/120 60/131/48 62/133/50
f 155/232/149 104/203/120 62/133/50
f 156/233/150 159/163/80 164/161/78
f 157/234/151 156/233/150 164/161/78
f 158/235/152 167/162/79 161/164/81
f 160/236/153 158/235/152 161/164/81
f 145/229/146 144/166/83 159/163/80
f 156/233/150 145/229/146 159/163/80
f 160/236/153 161/164/81 162/165/82
f 147/230/147 160/236/153 162/165/82
f 163/237/154 75/158/75 74/157/74
f 168/238/155 163/237/154 74/157/74
f 157/234/151 164/161/78 165/160/77
f 166/239/156 157/234/151 165/160/77
f 173/240/157 76/159/76 167/162/79
f 158/235/152 173/240/157 167/162/79
f 168/238/155 74/157/74 169/155/72
f 170/241/158 168/238/155 169/155/72
f 175/242/159 73/154/71 172/156/73
f 171/243/160 175/242/159 172/156/73
f 166/239/156 165/160/77 75/158/75
f 163/237/154 166/239/156 75/158/75
f 171/243/160 172/156/73 76/159/76
f 173/240/157 171/243/160 76/159/76
f 170/241/158 169/155/72 72/153/70
f 177/244/161 170/241/158 72/153/70
f 174/245/162 176/152/69 73/154/71
f 175/242/159 174/245/162 73/154/71
f 178/246/163 71/151/68 70/150/67
f 181/247/164 178/246/163 70/150/67
f 180/248/165 69/149/66 176/152/69
f 174/245/162 180/248/165 176/152/69
f 177/244/161 72/153/70 71/151/68
f 178/246/163 177/244/161 71/151/68
f 183/249/166 182/148/65 65/142/59
f 191/250/167 183/249/166 65/142/59
f 179/251/168 68/147/64 69/149/66
f 180/248/165 179/251/168 69/149/66
f 181/247/164 70/150/67 182/148/65
f 183/249/166 181/247/164 182/148/65
f 185/252/169 67/146/63 68/147/64
f 179/251/168 185/252/169 68/147/64
f 188/253/170 184/145/62 67/146/63
f 185/252/169 188/253/170 67/146/63
f 186/254/171 190/143/60 66/144/61
f 187/255/172 186/254/171 66/144/61
f 187/255/172 66/144/61 184/145/62
f 188/253/170 187/255/172 184/145/62
f 189/256/173 64/141/58 190/143/60
f 186/254/171 189/256/173 190/143/60
f 191/250/167 65/142/59 61/132/49
f 192/204/121 191/250/167 61/132/49
f 195/257/174 193/140/57 64/141/58
f 189/256/173 195/257/174 64/141/58
f 194/258/175 198/139/56 193/140/57
f 195/257/174 194/258/175 193/140/57
f 196/206/123 197/138/55 198/139/56
f 194/258/175 196/206/123 198/139/56
