# Blender v2.77 (sub 0) OBJ File: 'ParlorMeasurement.blend'
# www.blender.org
mtllib curvewall.mtl
o curvewall_Combined_Mesh_(root:_scene).002
v 9.627830 1.375709 -6.816929
v 9.627829 1.375708 -4.315423
v 9.627829 -1.857015 -4.315423
v 9.627830 -1.857015 -6.816930
v 9.603238 -1.857014 -3.940242
v 9.603238 1.375710 -3.940242
v 9.553540 -1.857015 -3.562815
v 9.553540 1.375708 -3.562814
v 9.456144 -1.857014 -3.199326
v 9.456144 1.375710 -3.199326
v 9.310866 -1.857015 -2.848593
v 9.310865 1.375708 -2.848593
v 9.122709 -1.857014 -2.522696
v 9.122709 1.375710 -2.522697
v 8.891605 -1.857016 -2.221516
v 8.891605 1.375708 -2.221517
v 8.625513 -1.857014 -1.955423
v 8.625513 1.375710 -1.955423
v 8.310443 1.375708 -1.713648
v 8.310443 -1.857014 -1.713649
vt 0.9985 0.9998
vt 0.5476 0.9998
vt 0.5476 -0.0000
vt 0.9985 -0.0000
vt 0.4799 -0.0000
vt 0.4799 0.9998
vt 0.4115 -0.0000
vt 0.4115 0.9998
vt 0.3437 -0.0000
vt 0.3437 0.9998
vt 0.2753 -0.0000
vt 0.2753 0.9998
vt 0.2076 -0.0000
vt 0.2076 0.9998
vt 0.1393 -0.0000
vt 0.1393 0.9998
vt 0.0716 -0.0000
vt 0.0716 0.9998
vt 0.0000 0.9998
vt 0.0001 -0.0000
vn 1.0000 0.0000 0.0000
vn 1.0000 0.0000 0.0085
vn 0.9952 0.0000 0.0980
vn 0.9808 0.0000 0.1951
vn 0.9469 -0.0000 0.3214
vn 0.9468 -0.0000 0.3218
vn 0.8969 -0.0000 0.4423
vn 0.8970 -0.0000 0.4420
vn 0.8315 0.0000 0.5556
vn 0.7518 0.0000 0.6593
vn 0.6580 0.0000 0.7530
vn 0.6088 0.0000 0.7933
usemtl None
s 1
f 1/1/1 2/2/2 3/3/2
f 4/4/1 1/1/1 3/3/2
f 3/3/2 2/2/2 5/5/3
f 2/2/2 6/6/3 5/5/3
f 5/5/3 6/6/3 7/7/4
f 6/6/3 8/8/4 7/7/4
f 7/7/4 8/8/4 9/9/5
f 8/8/4 10/10/6 9/9/5
f 9/9/5 10/10/6 11/11/7
f 10/10/6 12/12/8 11/11/7
f 11/11/7 12/12/8 13/13/9
f 12/12/8 14/14/9 13/13/9
f 13/13/9 14/14/9 15/15/10
f 14/14/9 16/16/10 15/15/10
f 15/15/10 16/16/10 17/17/11
f 16/16/10 18/18/11 17/17/11
f 17/17/11 18/18/11 19/19/12
f 20/20/12 17/17/11 19/19/12
