# Blender v2.77 (sub 0) OBJ File: ''
# www.blender.org
mtllib snow.mtl
o Combined_Mesh_(root:_scene).001
v 6.888464 0.933112 2.585270
v 7.289745 0.933112 1.627464
v 7.289745 -2.215262 1.627462
v 6.888465 -2.215264 2.585268
v 7.540133 -2.215262 0.765527
v 7.540133 0.933113 0.765528
v 7.642507 -2.215262 0.019008
v 7.642507 0.933113 0.019008
v 7.644019 -2.215262 -0.630769
v 7.644019 0.933113 -0.630768
v 7.605004 -2.215262 -1.272254
v 7.605004 0.933113 -1.272253
v 7.472335 -2.215262 -1.880195
v 7.472335 0.933113 -1.880194
v 7.274741 -2.215262 -2.547553
v 7.274741 0.933113 -2.547551
v 7.031319 -2.215262 -3.089401
v 7.031319 0.933114 -3.089400
v 6.707203 -2.215262 -3.639300
v 6.707202 0.933114 -3.639299
v 6.311848 -2.215262 -4.130161
v 6.311847 0.933114 -4.130160
v 5.864372 -2.215262 -4.578964
v 5.864371 0.933114 -4.578963
v 5.833462 -2.215264 4.420771
v 5.833462 0.933111 4.420772
vt 0.7864 1.0000
vt 0.6816 1.0000
vt 0.6816 0.0000
vt 0.7864 0.0000
vt 0.5911 0.0000
vt 0.5911 1.0000
vt 0.5151 0.0000
vt 0.5151 1.0000
vt 0.4496 0.0000
vt 0.4496 1.0000
vt 0.3847 0.0000
vt 0.3847 1.0000
vt 0.3220 0.0000
vt 0.3220 1.0000
vt 0.2518 0.0000
vt 0.2518 1.0000
vt 0.1919 0.0000
vt 0.1919 1.0000
vt 0.1275 0.0000
vt 0.1275 1.0000
vt 0.0639 0.0000
vt 0.0639 1.0000
vt 0.0000 0.0000
vt -0.0000 1.0000
vt 0.9999 0.0000
vt 0.9999 1.0000
vn -0.8867 0.0000 -0.4623
vn -0.9415 0.0000 -0.3371
vn -0.9414 -0.0000 -0.3372
vn -0.9768 -0.0000 -0.2142
vn -0.9972 -0.0000 -0.0742
vn -0.9996 -0.0000 0.0292
vn -0.9907 0.0000 0.1363
vn -0.9906 0.0000 0.1365
vn -0.9681 0.0000 0.2507
vn -0.9395 -0.0000 0.3427
vn -0.8873 -0.0000 0.4612
vn -0.8226 0.0000 0.5686
vn -0.8223 -0.0000 0.5690
vn -0.7445 -0.0000 0.6676
vn -0.7082 -0.0000 0.7061
vn -0.8670 -0.0000 -0.4983
usemtl None
s 1
f 1/1/1 2/2/2 3/3/3
f 4/4/1 1/1/1 3/3/3
f 3/3/3 2/2/2 5/5/4
f 2/2/2 6/6/4 5/5/4
f 5/5/4 6/6/4 7/7/5
f 6/6/4 8/8/5 7/7/5
f 7/7/5 8/8/5 9/9/6
f 8/8/5 10/10/6 9/9/6
f 9/9/6 10/10/6 11/11/7
f 10/10/6 12/12/8 11/11/7
f 11/11/7 12/12/8 13/13/9
f 12/12/8 14/14/9 13/13/9
f 13/13/9 14/14/9 15/15/10
f 14/14/9 16/16/10 15/15/10
f 15/15/10 16/16/10 17/17/11
f 16/16/10 18/18/11 17/17/11
f 17/17/11 18/18/11 19/19/12
f 18/18/11 20/20/13 19/19/12
f 19/19/12 20/20/13 21/21/14
f 20/20/13 22/22/14 21/21/14
f 21/21/14 22/22/14 23/23/15
f 22/22/14 24/24/15 23/23/15
f 25/25/16 26/26/16 1/1/1
f 4/4/1 25/25/16 1/1/1
