# Blender v2.78 (sub 4) OBJ File: 'e1m1.blend'
# www.blender.org
mtllib door4.mtl
o Door_4_bottom_Object__304.001
v -24.285263 3.748271 -20.505722
v -22.170265 3.748271 -20.505722
v -22.170265 3.748271 -19.976715
v -24.285263 3.748271 -19.976715
vt -47.500000 -71.625000
vt -46.500000 -71.625000
vt -46.500000 -71.375000
vt -47.500000 -71.375000
vn 0.0000 -1.0000 0.0000
usemtl Material__10
s 1
f 1/1/1 2/2/1 3/3/1 4/4/1
o Door_4_sides_Object__304
v -24.285263 3.748271 -20.505722
v -24.285263 6.127271 -20.505718
v -22.170265 6.127271 -20.505718
v -22.170265 3.748271 -20.505722
v -22.170265 3.748271 -19.976715
v -22.170265 6.127271 -19.976711
v -24.285263 6.127271 -19.976711
v -24.285263 3.748271 -19.976715
vt 0.500000 1.000000
vt 0.500000 2.000000
vt 0.000000 2.000000
vt 0.000000 1.000000
vt 0.500000 1.000000
vt 0.500000 2.000000
vt 0.000000 2.000000
vt 0.000000 1.000000
vn 0.0000 0.0000 -1.0000
vn 0.0000 -0.0000 1.0000
usemtl Material__50
s 1
f 5/5/2 6/6/2 7/7/2 8/8/2
f 9/9/3 10/10/3 11/11/3 12/12/3
