# Blender v2.78 (sub 4) OBJ File: 'e1m1.blend'
# www.blender.org
mtllib door2.mtl
o Door_2_bottom_Object__308.001
v -21.113266 3.748259 4.073288
v -20.056259 3.748259 4.073288
v -20.056259 3.748258 8.301287
v -21.113266 3.748258 8.301287
vt -46.000000 -60.000000
vt -45.500000 -60.000000
vt -45.500000 -58.000000
vt -46.000000 -58.000000
vn 0.0000 -1.0000 -0.0000
usemtl Material__8
s 1
f 1/1/1 2/2/1 3/3/1 4/4/1
o Door_2_sides_Object__308
v -21.113266 3.748258 8.301287
v -21.113266 10.355259 8.301289
v -21.113266 10.355259 4.073292
v -21.113266 3.748259 4.073288
v -20.056259 3.748259 4.073288
v -20.056259 6.127261 4.073290
v -20.056259 6.127257 8.301287
v -20.056259 3.748258 8.301287
vt 1.000000 0.437500
vt 1.000000 2.000000
vt 0.000000 2.000000
vt 0.000000 0.437500
vt 1.000000 1.000000
vt 1.000000 1.562500
vt 0.000000 1.562500
vt 0.000000 1.000000
vn -1.0000 -0.0000 0.0000
vn 1.0000 0.0000 0.0000
usemtl Material__54
s 1
f 5/5/2 6/6/2 7/7/2 8/8/2
f 9/9/3 10/10/3 11/11/3 12/12/3
