# Blender v2.78 (sub 4) OBJ File: 'e1m1.blend'
# www.blender.org
mtllib door3.mtl
o Door_3._bottom_Object__311.001
v 66.601257 4.235603 13.304330
v 62.372265 4.235603 13.304329
v 62.372265 4.235603 12.775336
v 66.601257 4.235603 12.775338
vt -48.000000 -62.000000
vt -46.000000 -62.000000
vt -46.000000 -61.750000
vt -48.000000 -61.750000
vn 0.0000 -1.0000 0.0000
usemtl Material__10
s 1
f 1/1/1 2/2/1 3/3/1 4/4/1
o Door_3_sides_Object__311
v 62.372265 4.235603 12.775336
v 62.372265 6.614603 12.775336
v 66.601257 6.614603 12.775337
v 66.601257 4.235603 12.775338
v 66.601257 4.235603 13.304330
v 66.601257 6.614603 13.304330
v 62.372265 6.614603 13.304328
v 62.372265 4.235603 13.304329
vt 1.000000 1.000000
vt 1.000000 1.562500
vt 0.000000 1.562500
vt 0.000000 1.000000
vt 1.000000 1.000000
vt 1.000000 1.562500
vt 0.000000 1.562500
vt 0.000000 1.000000
vn 0.0000 -0.0000 -1.0000
vn -0.0000 0.0000 1.0000
usemtl Material__55
s 1
f 5/5/2 6/6/2 7/7/2 8/8/2
f 9/9/3 10/10/3 11/11/3 12/12/3
