# Blender v2.78 (sub 4) OBJ File: 'e1m1-test.blend'
# www.blender.org
mtllib elevator.mtl
o Elevator_Cube
v -3.140058 0.000000 0.885365
v -3.140058 7.000000 0.885365
v -3.140058 0.000000 -8.010925
v -3.140058 7.000000 -8.010925
v 3.140058 0.000000 0.885365
v 3.140058 7.000000 0.885365
v 3.140058 0.000000 -8.010925
v 3.140058 7.000000 -8.010925
v -3.140058 1.000000 0.885365
v 3.140058 1.000000 0.885365
v -3.140058 1.000000 -8.010925
v 3.140058 1.000000 -8.010925
v -3.140058 2.000000 0.885365
v 3.140058 2.000000 0.885365
v -3.140058 2.000000 -8.010925
v 3.140058 2.000000 -8.010925
v -3.140058 3.000000 0.885365
v 3.140058 3.000000 0.885365
v -3.140058 3.000000 -8.010925
v 3.140058 3.000000 -8.010925
v -3.140058 4.000000 0.885365
v 3.140058 4.000000 0.885365
v -3.140058 4.000000 -8.010925
v 3.140058 4.000000 -8.010925
v -3.140058 5.000000 0.885365
v 3.140058 5.000000 0.885365
v -3.140058 5.000000 -8.010925
v 3.140058 5.000000 -8.010925
vn 1.0000 0.0000 0.0000
vn 0.0000 0.0000 1.0000
vn -1.0000 0.0000 0.0000
vn 0.0000 0.0000 -1.0000
vn 0.0000 1.0000 0.0000
usemtl Material.001
s off
f 1//1 3//1 4//1 2//1
f 3//2 7//2 8//2 4//2
f 7//3 5//3 6//3 8//3
f 5//4 1//4 2//4 6//4
f 9//5 10//5 12//5 11//5
f 13//5 14//5 16//5 15//5
f 17//5 18//5 20//5 19//5
f 21//5 22//5 24//5 23//5
f 25//5 26//5 28//5 27//5
