# Blender v2.78 (sub 4) OBJ File: 'e1m1.blend'
# www.blender.org
mtllib ramps.mtl
o Ramps_Plane.002
v 35.972740 4.541249 31.558285
v 31.743734 4.541247 30.501286
v 35.982964 3.997931 30.912823
v 31.753958 3.997930 29.855824
v 35.972740 4.541251 20.987286
v 31.743734 4.541249 22.044285
v 35.954803 4.009080 21.543301
v 31.725801 4.009080 22.600300
v 13.499762 2.611508 30.501034
v 20.888643 2.611506 30.493828
v 13.713980 1.931086 29.622654
v 20.460741 1.931087 29.629440
v 25.904562 2.611507 28.391796
v 24.713549 1.931087 27.877464
v 25.142504 2.611507 21.240269
v 24.044878 1.931086 21.962074
v 17.214676 2.611505 19.145451
v 17.081423 1.931085 20.099327
v 7.980009 2.611507 20.452217
v 8.780842 1.931088 21.261349
v 5.877226 2.611508 24.929932
v 7.099539 1.931087 24.917393
v 8.772257 2.611509 29.162075
v 9.638880 1.931086 28.522141
v -19.010834 3.718534 8.264422
v -9.774467 -0.138108 8.264422
v -19.010834 3.718534 4.141368
v -11.809015 -0.138108 3.610240
v 4.284431 2.660345 8.255681
v 8.472176 2.660345 8.255681
v 4.284431 0.113536 3.170613
v 8.472176 0.113536 3.170613
v 64.551994 4.283399 27.307888
v 71.881691 7.986173 27.307888
v 64.551994 4.283399 25.241295
v 71.881691 7.986173 25.241295
vt 21.000000 -47.500000
vt 19.000000 -47.000000
vt 19.000000 -47.000000
vt 21.000000 -47.500000
vt 19.000000 -52.000000
vt 21.000000 -51.500000
vt 21.000000 -51.500000
vt 19.000000 -52.000000
vt 0.000000 0.000000
vt 0.000000 0.000000
vt 0.000000 0.000000
vt 0.000000 0.000000
vt 0.000000 0.000000
vt 0.000000 0.000000
vt 0.000000 0.000000
vt 0.000000 0.000000
vt 0.000000 0.000000
vt 0.000000 0.000000
vt 0.000000 0.000000
vt 0.000000 0.000000
vt 0.000000 0.000000
vt 0.000000 0.000000
vt 0.000000 0.000000
vt 0.000000 0.000000
vt 0.000000 0.000000
vt 0.000000 0.000000
vt 0.000000 0.000000
vt 0.000000 0.000000
vt 0.000000 0.000000
vt 0.000000 0.000000
vt 0.000000 0.000000
vt 0.000000 0.000000
vt 0.000000 0.000000
vt 0.000000 0.000000
vt 0.000000 0.000000
vt 0.000000 0.000000
vn 0.1585 0.7566 -0.6344
vn 0.1710 0.7090 0.6841
vn -0.0000 0.7882 -0.6154
vn -0.2240 0.8122 -0.5387
vn -0.5066 0.8604 0.0555
vn -0.1477 0.8181 0.5558
vn 0.0829 0.8038 0.5891
vn 0.4816 0.8472 0.2241
vn 0.4486 0.8378 -0.3111
vn 0.1638 0.7897 -0.5912
vn 0.4202 0.9022 -0.0974
vn 0.0000 0.8941 -0.4478
vn -0.4509 0.8926 0.0000
usemtl Material.001
s 1
f 2/1/1 1/2/1 3/3/1 4/4/1
f 5/5/2 6/6/2 8/7/2 7/8/2
usemtl Material.001_NONE
s off
f 9/9/3 10/10/3 12/11/3 11/12/3
f 12/11/4 10/10/4 13/13/4 14/14/4
f 14/14/5 13/13/5 15/15/5 16/16/5
f 16/16/6 15/15/6 17/17/6 18/18/6
f 18/18/7 17/17/7 19/19/7 20/20/7
f 20/20/8 19/19/8 21/21/8 22/22/8
f 22/22/9 21/21/9 23/23/9 24/24/9
f 11/12/10 24/24/10 23/23/10 9/9/10
f 25/25/11 26/26/11 28/27/11 27/28/11
f 29/29/12 30/30/12 32/31/12 31/32/12
f 33/33/13 34/34/13 36/35/13 35/36/13
