# Blender v2.78 (sub 4) OBJ File: 'e1m1.blend'
# www.blender.org
mtllib ramps.mtl
o Ramps_Plane.002
v 5.286274 5.028590 -18.409691
v 9.515278 5.028588 -17.352694
v 5.276051 4.485272 -17.764229
v 9.505054 4.485271 -16.707232
v 5.286270 5.028592 -7.838692
v 9.515274 5.028590 -8.895691
v 5.304203 4.496420 -8.394709
v 9.533207 4.496420 -9.451706
v 27.759251 3.098849 -17.352436
v 20.370369 3.098847 -17.345230
v 27.545033 2.418427 -16.474056
v 20.798271 2.418428 -16.480843
v 15.354450 3.098848 -15.243202
v 16.545464 2.418428 -14.728870
v 16.116505 3.098848 -8.091673
v 17.214130 2.418427 -8.813478
v 24.044333 3.098846 -5.996851
v 24.177586 2.418426 -6.950729
v 33.278999 3.098848 -7.303616
v 32.478168 2.418428 -8.112747
v 35.381786 3.098849 -11.781330
v 34.159470 2.418427 -11.768791
v 32.486755 3.098849 -16.013475
v 31.620132 2.418427 -15.373541
v 60.269840 4.205875 4.884188
v 51.033474 0.349233 4.884185
v 60.269836 4.205875 9.007242
v 53.068020 0.349233 9.538367
v 36.974575 3.147686 4.892922
v 32.786827 3.147686 4.892920
v 36.974571 0.600877 9.977990
v 32.786827 0.600877 9.977989
v -23.292980 4.770739 -14.159304
v -30.622684 8.473513 -14.159306
v -23.292980 4.770739 -12.092712
v -30.622684 8.473513 -12.092714
vt 0.000000 0.000000
vt 0.000000 0.000000
vt 0.000000 0.000000
vt 0.000000 0.000000
vt 0.000000 0.000000
vt 0.000000 0.000000
vt 0.000000 0.000000
vt 0.000000 0.000000
vt 0.000000 0.000000
vt 0.000000 0.000000
vt 0.000000 0.000000
vt 0.000000 0.000000
vt 0.000000 0.000000
vt 0.000000 0.000000
vt 0.000000 0.000000
vt 0.000000 0.000000
vt 0.000000 0.000000
vt 0.000000 0.000000
vt 0.000000 0.000000
vt 0.000000 0.000000
vt 0.000000 0.000000
vt 0.000000 0.000000
vt 0.000000 0.000000
vt 0.000000 0.000000
vt 0.000000 0.000000
vt 0.000000 0.000000
vt 0.000000 0.000000
vt 0.000000 0.000000
vt 21.000000 -47.500000
vt 19.000000 -47.000000
vt 19.000000 -47.000000
vt 21.000000 -47.500000
vt 19.000000 -52.000000
vt 21.000000 -51.500000
vt 21.000000 -51.500000
vt 19.000000 -52.000000
vn 0.0000 0.7882 0.6154
vn 0.2240 0.8122 0.5387
vn 0.5066 0.8604 -0.0555
vn 0.1477 0.8181 -0.5558
vn -0.0829 0.8038 -0.5891
vn -0.4816 0.8472 -0.2241
vn -0.4486 0.8378 0.3111
vn -0.1638 0.7897 0.5912
vn -0.4202 0.9022 0.0974
vn -0.0000 0.8941 0.4478
vn 0.4509 0.8926 0.0000
vn -0.1585 0.7566 0.6344
vn -0.1710 0.7090 -0.6841
usemtl Material.001
s off
f 9/1/1 10/2/1 12/3/1 11/4/1
f 12/3/2 10/2/2 13/5/2 14/6/2
f 14/6/3 13/5/3 15/7/3 16/8/3
f 16/8/4 15/7/4 17/9/4 18/10/4
f 18/10/5 17/9/5 19/11/5 20/12/5
f 20/12/6 19/11/6 21/13/6 22/14/6
f 22/14/7 21/13/7 23/15/7 24/16/7
f 11/4/8 24/16/8 23/15/8 9/1/8
f 25/17/9 26/18/9 28/19/9 27/20/9
f 29/21/10 30/22/10 32/23/10 31/24/10
f 33/25/11 34/26/11 36/27/11 35/28/11
s 1
f 2/29/12 1/30/12 3/31/12 4/32/12
f 5/33/13 6/34/13 8/35/13 7/36/13
