# Blender v2.78 (sub 0) OBJ File: ''
# www.blender.org
mtllib ring.mtl
o ring_Combined_Mesh_(root:_scene).020
v -2.282778 0.456113 -7.944202
v -2.539553 0.456113 -7.960358
v -2.539552 0.428249 -7.852360
v -2.296313 0.428249 -7.837057
v -1.785362 0.456113 -7.816488
v -2.030051 0.456113 -7.895991
v -2.056910 0.428249 -7.791388
v -1.825118 0.428249 -7.716074
v -3.049055 0.456113 -3.927245
v -2.796329 0.456113 -3.879034
v -2.782793 0.428249 -3.986179
v -3.022196 0.428249 -4.031848
v -1.552564 0.456113 -7.706943
v -1.604594 0.428249 -7.612304
v -2.030051 0.456113 -3.927245
v -1.785362 0.456113 -4.006749
v -1.825118 0.428249 -4.107162
v -2.056910 0.428249 -4.031848
v -4.552004 0.456113 -6.295513
v -4.445921 0.428249 -6.275278
v -4.385310 0.428249 -6.511342
v -4.488017 0.456113 -6.544714
v -3.049053 0.456113 -7.895994
v -3.022196 0.428249 -7.791390
v -2.782792 0.428249 -7.837059
v -2.796329 0.456113 -7.944204
v -3.526543 0.456113 -7.706942
v -3.474514 0.428249 -7.612305
v -3.253988 0.428249 -7.716076
v -3.293740 0.456113 -7.816489
v -0.809745 0.456113 -7.009387
v -0.960972 0.456113 -7.217534
v -1.044186 0.428249 -7.148695
v -0.900931 0.428249 -6.951520
v -3.743772 0.456113 -4.254154
v -3.680294 0.428249 -4.341524
v -3.868084 0.428249 -4.496878
v -3.942013 0.456113 -4.418151
v -4.393311 0.456113 -6.783928
v -4.295591 0.428249 -6.737946
v -4.178177 0.428249 -6.951521
v -4.269361 0.456113 -7.009388
v -4.118135 0.456113 -4.605703
v -4.034922 0.428249 -4.674542
v -4.178178 0.428249 -4.871716
v -4.269362 0.456113 -4.813848
v -0.527104 0.456113 -6.295513
v -0.591086 0.456113 -6.544711
v -0.693798 0.428249 -6.511341
v -0.633187 0.428249 -6.275278
v -1.137094 0.456113 -4.418153
v -0.960972 0.456113 -4.605705
v -1.044186 0.428249 -4.674543
v -1.211023 0.428249 -4.496878
v -4.034922 0.428249 -7.148695
v -4.118136 0.456113 -7.217534
v -0.809745 0.456113 -4.813850
v -0.685797 0.456113 -5.039309
v -0.783517 0.428249 -5.085292
v -0.900930 0.428249 -4.871716
v -0.685800 0.456113 -6.783927
v -0.783518 0.428249 -6.737946
v -4.584252 0.456113 -6.040260
v -4.476467 0.428249 -6.033479
v -0.591086 0.456113 -5.278525
v -0.527104 0.456113 -5.527724
v -0.633187 0.428249 -5.547960
v -0.693798 0.428249 -5.311897
v -3.868083 0.428249 -7.326359
v -3.942011 0.456113 -7.405084
v -1.552563 0.456113 -4.116296
v -1.604593 0.428249 -4.210933
v -1.137095 0.456113 -7.405084
v -1.335336 0.456113 -7.569084
v -1.398814 0.428249 -7.481712
v -1.211024 0.428249 -7.326360
v -3.526544 0.456113 -4.116294
v -3.474514 0.428249 -4.210932
v -0.494857 0.456113 -5.782977
v -0.494857 0.456113 -6.040261
v -0.602641 0.428249 -6.033479
v -0.602641 0.428249 -5.789759
v -4.488021 0.456113 -5.278523
v -4.385309 0.428249 -5.311896
v -4.445920 0.428249 -5.547959
v -4.552003 0.456113 -5.527723
v -2.282778 0.456113 -3.879035
v -2.296314 0.428249 -3.986180
v -4.584251 0.456113 -5.782976
v -4.476467 0.428249 -5.789758
v -3.293745 0.456113 -4.006749
v -3.253988 0.428249 -4.107162
v -4.393311 0.456113 -5.039308
v -4.295590 0.428249 -5.085291
v -2.539554 0.456113 -3.862880
v -2.539554 0.428249 -3.970876
v -1.335336 0.456113 -4.254154
v -1.398813 0.428249 -4.341526
v -3.680294 0.428249 -7.481713
v -3.743773 0.456113 -7.569084
vt -0.1015 6.0924
vt -0.1015 5.5923
vt 0.1088 5.5923
vt 0.1088 6.0924
vt -0.1015 7.0924
vt -0.1015 6.5924
vt 0.1088 6.5924
vt 0.1088 7.0924
vt -0.1015 -5.9085
vt -0.1015 -6.4085
vt 0.1088 -6.4085
vt 0.1088 -5.9085
vt -0.1015 7.5925
vt 0.1088 7.5925
vt -0.1015 -7.9086
vt -0.1015 -8.4086
vt 0.1088 -8.4086
vt 0.1088 -7.9086
vt -0.1015 0.0919
vt 0.1088 0.0919
vt 0.1088 0.5920
vt -0.1015 0.5920
vt -0.1015 4.5923
vt 0.1088 4.5923
vt 0.1088 5.0923
vt -0.1015 5.0923
vt -0.1015 3.5922
vt 0.1088 3.5922
vt 0.1088 4.0922
vt -0.1015 4.0922
vt -0.1015 9.5926
vt -0.1015 9.0925
vt 0.1088 9.0925
vt 0.1088 9.5926
vt -0.1015 -4.4084
vt 0.1088 -4.4084
vt 0.1088 -3.9083
vt -0.1015 -3.9083
vt -0.1015 1.0920
vt 0.1088 1.0920
vt 0.1088 1.5920
vt -0.1015 1.5920
vt -0.1015 -3.4083
vt 0.1088 -3.4083
vt 0.1088 -2.9083
vt -0.1015 -2.9083
vt -0.1015 11.0927
vt -0.1015 10.5927
vt 0.1088 10.5927
vt 0.1088 11.0927
vt -0.1015 -9.9087
vt -0.1015 -10.4088
vt 0.1088 -10.4088
vt 0.1088 -9.9087
vt 0.1088 2.0921
vt -0.1015 2.0921
vt -0.1015 -10.9088
vt -0.1015 -11.4088
vt 0.1088 -11.4088
vt 0.1088 -10.9088
vt -0.1015 10.0926
vt 0.1088 10.0926
vt -0.1015 -0.4081
vt 0.1088 -0.4081
vt -0.1015 -11.9089
vt -0.1015 -12.4089
vt 0.1088 -12.4089
vt 0.1088 -11.9089
vt 0.1088 2.5921
vt -0.1015 2.5921
vt -0.1015 -8.9087
vt 0.1088 -8.9087
vt -0.1015 8.5925
vt -0.1015 8.0925
vt 0.1088 8.0925
vt 0.1088 8.5925
vt -0.1015 -4.9084
vt 0.1088 -4.9084
vt -0.1015 12.0927
vt -0.1015 11.5927
vt 0.1088 11.5927
vt 0.1088 12.0927
vt -0.1015 -1.9082
vt 0.1088 -1.9082
vt 0.1088 -1.4082
vt -0.1015 -1.4082
vt -0.1015 -7.4086
vt 0.1088 -7.4086
vt -0.1015 -0.9081
vt 0.1088 -0.9081
vt -0.1015 -5.4084
vt 0.1088 -5.4084
vt -0.1015 -2.4082
vt 0.1088 -2.4082
vt -0.1015 -6.9085
vt 0.1088 -6.9085
vt -0.1015 -12.9089
vt 0.1088 -12.9089
vt -0.1015 -9.4087
vt 0.1088 -9.4087
vt 0.1088 3.0921
vt -0.1015 3.0921
vn -0.0313 0.9683 0.2479
vn 0.0067 0.9717 0.2362
vn -0.0075 0.9716 0.2365
vn -0.0266 0.9696 0.2432
vn -0.0920 0.9683 0.2323
vn -0.0621 0.9683 0.2420
vn 0.0621 0.9683 -0.2420
vn 0.0313 0.9683 -0.2479
vn -0.1204 0.9683 0.2189
vn -0.0621 0.9683 -0.2420
vn -0.0920 0.9683 -0.2323
vn 0.2454 0.9683 0.0468
vn 0.2376 0.9683 0.0772
vn 0.0665 0.9716 0.2273
vn 0.0515 0.9716 0.2310
vn 0.0313 0.9683 0.2479
vn 0.1204 0.9683 0.2189
vn 0.0920 0.9683 0.2323
vn -0.2109 0.9683 0.1339
vn -0.1925 0.9683 0.1592
vn 0.1468 0.9683 -0.2021
vn 0.1710 0.9683 -0.1821
vn 0.2261 0.9683 0.1064
vn 0.2109 0.9683 0.1339
vn 0.1925 0.9683 -0.1592
vn 0.2109 0.9683 -0.1339
vn -0.2454 0.9683 0.0468
vn -0.2376 0.9683 0.0772
vn -0.1710 0.9683 -0.1821
vn -0.1925 0.9683 -0.1592
vn 0.1925 0.9683 0.1592
vn -0.2109 0.9683 -0.1339
vn -0.2260 0.9683 -0.1064
vn -0.2261 0.9683 0.1064
vn 0.2493 0.9683 0.0157
vn -0.2376 0.9683 -0.0772
vn -0.2454 0.9683 -0.0468
vn 0.1710 0.9683 0.1821
vn -0.1204 0.9683 -0.2189
vn -0.1710 0.9683 0.1821
vn -0.1468 0.9683 0.2021
vn 0.1204 0.9683 -0.2189
vn -0.2493 0.9683 -0.0157
vn -0.2493 0.9683 0.0157
vn 0.2376 0.9683 -0.0772
vn 0.2454 0.9683 -0.0468
vn -0.0363 0.9717 -0.2334
vn -0.0222 0.9716 -0.2356
vn 0.2493 0.9683 -0.0157
vn 0.0798 0.9715 -0.2230
vn 0.0941 0.9716 -0.2172
vn 0.2260 0.9683 -0.1064
vn -0.0079 0.9716 -0.2367
vn -0.0155 0.9678 -0.2513
vn -0.1468 0.9683 -0.2021
vn 0.1468 0.9683 0.2021
usemtl None
s 1
f 1/1/1 2/2/2 3/3/3 4/4/4
f 5/5/5 6/6/6 7/7/6 8/8/5
f 9/9/7 10/10/8 11/11/8 12/12/7
f 13/13/9 5/5/5 8/8/5 14/14/9
f 15/15/10 16/16/11 17/17/11 18/18/10
f 19/19/12 20/20/12 21/21/13 22/22/13
f 23/23/14 24/24/15 25/25/16 26/26/16
f 27/27/17 28/28/17 29/29/18 30/30/18
f 31/31/19 32/32/20 33/33/20 34/34/19
f 35/35/21 36/36/21 37/37/22 38/38/22
f 25/25/16 3/3/3 2/2/2 26/26/16
f 39/39/23 40/40/23 41/41/24 42/42/24
f 43/43/25 44/44/25 45/45/26 46/46/26
f 47/47/27 48/48/28 49/49/28 50/50/27
f 51/51/29 52/52/30 53/53/30 54/54/29
f 42/42/24 41/41/24 55/55/31 56/56/31
f 57/57/32 58/58/33 59/59/33 60/60/32
f 61/61/34 31/31/19 34/34/19 62/62/34
f 63/63/35 64/64/35 20/20/12 19/19/12
f 65/65/36 66/66/37 67/67/37 68/68/36
f 56/56/31 55/55/31 69/69/38 70/70/38
f 16/16/11 71/71/39 72/72/39 17/17/11
f 23/23/14 30/30/18 29/29/18 24/24/15
f 73/73/40 74/74/41 75/75/41 76/76/40
f 77/77/42 78/78/42 36/36/21 35/35/21
f 79/79/43 80/80/44 81/81/44 82/82/43
f 58/58/33 65/65/36 68/68/36 59/59/33
f 83/83/45 84/84/45 85/85/46 86/86/46
f 87/87/47 15/15/10 18/18/10 88/88/48
f 22/22/13 21/21/13 40/40/23 39/39/23
f 74/74/41 13/13/9 14/14/9 75/75/41
f 80/80/44 47/47/27 50/50/27 81/81/44
f 89/89/49 90/90/49 64/64/35 63/63/35
f 38/38/22 37/37/22 44/44/25 43/43/25
f 91/91/50 9/9/7 12/12/7 92/92/51
f 6/6/6 1/1/1 4/4/4 7/7/6
f 93/93/52 94/94/52 84/84/45 83/83/45
f 46/46/26 45/45/26 94/94/52 93/93/52
f 32/32/20 73/73/40 76/76/40 33/33/20
f 10/10/8 95/95/53 96/96/54 11/11/8
f 66/66/37 79/97/43 82/98/43 67/67/37
f 95/95/53 87/87/47 88/88/48 96/96/54
f 52/52/30 57/57/32 60/60/32 53/53/30
f 97/99/55 51/51/29 54/54/29 98/100/55
f 86/86/46 85/85/46 90/90/49 89/89/49
f 91/91/50 92/92/51 78/78/42 77/77/42
f 70/70/38 69/69/38 99/101/56 100/102/56
f 100/102/56 99/101/56 28/28/17 27/27/17
f 48/48/28 61/61/34 62/62/34 49/49/28
f 71/71/39 97/99/55 98/100/55 72/72/39
